<?xml version="1.0" encoding="UTF-8" standalone="no"?><!DOCTYPE svg PUBLIC "-//W3C//DTD SVG 1.1//EN" "http://www.w3.org/Graphics/SVG/1.1/DTD/svg11.dtd"><svg width="100%" height="100%" viewBox="0 0 2796 2038" version="1.1" xmlns="http://www.w3.org/2000/svg" xmlns:xlink="http://www.w3.org/1999/xlink" xml:space="preserve" xmlns:serif="http://www.serif.com/" style="fill-rule:evenodd;clip-rule:evenodd;stroke-linejoin:round;stroke-miterlimit:1.5;"><rect id="ArtBoard1" x="0" y="0" width="2795.49" height="2037.04" style="fill:none;"/><g id="objects"><circle cx="1397.75" cy="633.462" r="449.578" style="fill:none;stroke:#ccc;stroke-width:54.17px;"/><path d="M1573.34,1046.98l0,-0" style="fill:none;fill-rule:nonzero;stroke:#595959;stroke-width:6.33px;stroke-linecap:round;stroke-miterlimit:4;"/><g><path d="M1584.16,1057.81l78.493,78.492l65.075,0" style="fill:none;fill-rule:nonzero;stroke:#ccc;stroke-width:6.33px;stroke-linecap:round;stroke-miterlimit:4;stroke-dasharray:0,19.12;"/><path d="M1831.3,804.748l133.717,-0" style="fill:none;fill-rule:nonzero;stroke:#ccc;stroke-width:6.33px;stroke-linecap:round;stroke-miterlimit:4;stroke-dasharray:0,19.65;"/><path d="M1868.11,462.179l133.717,0" style="fill:none;fill-rule:nonzero;stroke:#ccc;stroke-width:6.33px;stroke-linecap:round;stroke-miterlimit:4;stroke-dasharray:0,19.65;"/><path d="M1584.28,209.006l84.916,-84.919l57.874,0" style="fill:none;fill-rule:nonzero;stroke:#ccc;stroke-width:6.33px;stroke-linecap:round;stroke-miterlimit:4;stroke-dasharray:0,19.33;"/><path d="M1220.17,209.353l-78.726,-78.726l-75.979,0" style="fill:none;fill-rule:nonzero;stroke:#ccc;stroke-width:6.33px;stroke-linecap:round;stroke-miterlimit:4;stroke-dasharray:0,18.71;"/><path d="M972.808,462.179l-133.72,0" style="fill:none;fill-rule:nonzero;stroke:#ccc;stroke-width:6.33px;stroke-linecap:round;stroke-miterlimit:4;stroke-dasharray:0,19.65;"/><path d="M936.604,815.973l-133.721,0" style="fill:none;fill-rule:nonzero;stroke:#ccc;stroke-width:6.33px;stroke-linecap:round;stroke-miterlimit:4;stroke-dasharray:0,19.65;"/><path d="M1220.12,1057.63l-79.884,79.881" style="fill:none;fill-rule:nonzero;stroke:#ccc;stroke-width:6.33px;stroke-linecap:round;stroke-miterlimit:4;stroke-dasharray:0,18.81;"/></g><path d="M1735.39,1136.3l-0,-0" style="fill:none;fill-rule:nonzero;stroke:#595959;stroke-width:6.33px;stroke-linecap:round;stroke-miterlimit:4;"/><path d="M1815.57,804.748l-0,-0" style="fill:none;fill-rule:nonzero;stroke:#595959;stroke-width:6.33px;stroke-linecap:round;stroke-miterlimit:4;"/><path d="M1972.89,804.748l0.001,-0" style="fill:none;fill-rule:nonzero;stroke:#595959;stroke-width:6.33px;stroke-linecap:round;stroke-miterlimit:4;"/><path d="M1815.57,462.179l-0,0" style="fill:none;fill-rule:nonzero;stroke:#595959;stroke-width:6.33px;stroke-linecap:round;stroke-miterlimit:4;"/><path d="M1573.34,219.949l0,-0" style="fill:none;fill-rule:nonzero;stroke:#595959;stroke-width:6.33px;stroke-linecap:round;stroke-miterlimit:4;"/><path d="M1230.77,219.949l-0,-0" style="fill:none;fill-rule:nonzero;stroke:#595959;stroke-width:6.33px;stroke-linecap:round;stroke-miterlimit:4;"/><path d="M1057.98,130.628l-0,-0" style="fill:none;fill-rule:nonzero;stroke:#595959;stroke-width:6.33px;stroke-linecap:round;stroke-miterlimit:4;"/><path d="M988.541,462.179l-0,0" style="fill:none;fill-rule:nonzero;stroke:#595959;stroke-width:6.33px;stroke-linecap:round;stroke-miterlimit:4;"/><path d="M831.222,462.179l0,0" style="fill:none;fill-rule:nonzero;stroke:#ccc;stroke-width:6.33px;stroke-linecap:round;stroke-miterlimit:4;"/><path d="M1134.91,1142.84l0,-0" style="fill:none;fill-rule:nonzero;stroke:#ccc;stroke-width:6.33px;stroke-linecap:round;stroke-miterlimit:4;"/><path d="M1119.52,1142.84l-53.853,-0" style="fill:none;fill-rule:nonzero;stroke:#ccc;stroke-width:6.33px;stroke-linecap:round;stroke-miterlimit:4;stroke-dasharray:0,19.21;"/><g><path d="M1052.07,133.185l0,0" style="fill:none;fill-rule:nonzero;"/><path d="M1002.13,123.373c2.97,4.835 4.722,10.498 4.722,16.584c-0,17.522 -14.255,31.777 -31.784,31.777c-17.528,0 -31.786,-14.255 -31.786,-31.777c-0,-17.528 14.258,-31.786 31.786,-31.786c6.077,-0 11.746,1.748 16.581,4.718l4.852,-4.858c-6.127,-4.128 -13.501,-6.544 -21.433,-6.544c-21.209,0 -38.463,17.258 -38.463,38.47c-0,21.209 17.254,38.461 38.463,38.461c21.206,-0 38.464,-17.252 38.464,-38.461c-0,-7.935 -2.419,-15.309 -6.544,-21.439l-4.858,4.855Z" style="fill:#2680e3;fill-rule:nonzero;"/><path d="M985.857,118.678c-3.243,-1.655 -6.904,-2.603 -10.791,-2.603c-13.167,0 -23.882,10.715 -23.882,23.882c0,13.164 10.715,23.875 23.882,23.875c13.167,-0 23.882,-10.711 23.882,-23.875c-0,-3.891 -0.951,-7.551 -2.606,-10.795l-5.116,5.116c0.628,1.781 1.041,3.677 1.041,5.679c0,9.483 -7.718,17.195 -17.201,17.195c-9.483,-0 -17.198,-7.712 -17.198,-17.195c-0,-9.487 7.715,-17.205 17.198,-17.205c1.999,0 3.891,0.411 5.676,1.038l5.115,-5.112Z" style="fill:#2680e3;fill-rule:nonzero;"/><path d="M1033.5,95.994c-0.15,-0.46 -0.55,-0.791 -1.027,-0.867l-10.932,-1.529l-1.658,-11.054c-0.074,-0.481 -0.401,-0.875 -0.861,-1.028c-0.134,-0.047 -0.267,-0.067 -0.401,-0.067c-0.337,0 -0.667,0.137 -0.904,0.377l-11.786,11.779c-0.283,0.284 -0.417,0.694 -0.357,1.088l1.145,7.838l-25.073,25.08c-1.051,1.051 -1.345,2.526 -0.998,3.877l-6.48,6.477c-0.798,0.798 -0.798,2.086 -0,2.88c0.4,0.4 0.921,0.6 1.441,0.6c0.521,0 1.042,-0.2 1.442,-0.6l6.473,-6.48c0.361,0.093 0.728,0.143 1.092,0.143c1.014,0 2.018,-0.36 2.789,-1.141l25.077,-25.07l7.834,1.145c0.06,0.01 0.127,0.013 0.184,0.013c0.344,0 0.664,-0.13 0.904,-0.37l11.783,-11.786c0.347,-0.344 0.467,-0.844 0.313,-1.305" style="fill:#2680e3;fill-rule:nonzero;"/></g><g><path d="M1402.05,633.462l171.287,413.515" style="fill:none;fill-rule:nonzero;stroke:#ccc;stroke-width:3.16px;stroke-linejoin:miter;stroke-miterlimit:10;"/><path d="M1402.05,633.462l413.515,171.287" style="fill:none;fill-rule:nonzero;stroke:#ccc;stroke-width:3.16px;stroke-linejoin:miter;stroke-miterlimit:10;"/><path d="M1402.05,633.462l413.515,-171.283" style="fill:none;fill-rule:nonzero;stroke:#ccc;stroke-width:3.16px;stroke-linejoin:miter;stroke-miterlimit:10;"/><path d="M1402.05,633.462l171.287,-413.514" style="fill:none;fill-rule:nonzero;stroke:#ccc;stroke-width:3.16px;stroke-linejoin:miter;stroke-miterlimit:10;"/><path d="M1402.05,633.462l-171.283,-413.514" style="fill:none;fill-rule:nonzero;stroke:#ccc;stroke-width:3.16px;stroke-linejoin:miter;stroke-miterlimit:10;"/><path d="M1402.05,633.462l-413.514,-171.283" style="fill:none;fill-rule:nonzero;stroke:#ccc;stroke-width:3.16px;stroke-linejoin:miter;stroke-miterlimit:10;"/><path d="M1402.05,633.462l-413.514,171.287" style="fill:none;fill-rule:nonzero;stroke:#ccc;stroke-width:3.16px;stroke-linejoin:miter;stroke-miterlimit:10;"/><path d="M1402.05,633.462l-171.283,413.515" style="fill:none;fill-rule:nonzero;stroke:#ccc;stroke-width:3.16px;stroke-linejoin:miter;stroke-miterlimit:10;"/></g><path d="M1662.03,633.462c0,143.581 -116.392,259.973 -259.973,259.973c-143.577,0 -259.97,-116.392 -259.97,-259.973c0,-143.577 116.393,-259.973 259.97,-259.973c143.581,0 259.973,116.396 259.973,259.973" style="fill:#f2f2f2;fill-rule:nonzero;stroke:#ccc;stroke-width:4.17px;stroke-miterlimit:2;"/><path d="M1634.05,633.462c-0,128.128 -103.866,231.994 -231.994,231.994c-128.124,-0 -231.994,-103.866 -231.994,-231.994c0,-128.124 103.87,-231.993 231.994,-231.993c128.128,-0 231.994,103.869 231.994,231.993" style="fill:#fff;fill-rule:nonzero;stroke:#ccc;stroke-width:4.17px;stroke-miterlimit:2;"/><path d="M1617.46,219.949c0,24.369 -19.757,44.126 -44.126,44.126c-24.369,0 -44.126,-19.757 -44.126,-44.126c-0,-24.372 19.757,-44.127 44.126,-44.127c24.369,0 44.126,19.755 44.126,44.127" style="fill:#f2f2f2;fill-rule:nonzero;stroke:#ccc;stroke-width:4.17px;stroke-miterlimit:2;"/><path d="M1261.97,188.746c17.231,17.234 17.231,45.174 -0,62.405c-17.235,17.232 -45.174,17.232 -62.406,0c-17.231,-17.231 -17.231,-45.171 0,-62.405c17.232,-17.232 45.171,-17.232 62.406,-0" style="fill:#f2f2f2;fill-rule:nonzero;stroke:#ccc;stroke-width:4.17px;stroke-miterlimit:2;"/><path d="M988.541,418.054c24.368,-0 44.126,19.754 44.126,44.126c-0,24.369 -19.758,44.126 -44.126,44.126c-24.373,0 -44.127,-19.757 -44.127,-44.126c0,-24.372 19.754,-44.126 44.127,-44.126" style="fill:#f2f2f2;fill-rule:nonzero;stroke:#ccc;stroke-width:4.17px;stroke-miterlimit:2;"/><path d="M957.338,773.543c17.235,-17.232 45.174,-17.232 62.405,-0c17.232,17.235 17.232,45.174 0,62.405c-17.231,17.232 -45.17,17.232 -62.405,0c-17.232,-17.231 -17.232,-45.17 -0,-62.405" style="fill:#f2f2f2;fill-rule:nonzero;stroke:#ccc;stroke-width:4.17px;stroke-miterlimit:2;"/><path d="M1193.1,1015.77c17.234,-17.232 45.174,-17.232 62.405,-0c17.232,17.235 17.232,45.174 0,62.405c-17.231,17.232 -45.171,17.232 -62.405,0c-17.232,-17.231 -17.232,-45.17 -0,-62.405" style="fill:#f2f2f2;fill-rule:nonzero;stroke:#ccc;stroke-width:4.17px;stroke-miterlimit:2;"/><path d="M1542.13,1078.18c-17.231,-17.231 -17.231,-45.171 0,-62.402c17.235,-17.235 45.175,-17.235 62.406,-0c17.231,17.231 17.231,45.171 0,62.402c-17.231,17.235 -45.171,17.235 -62.406,-0" style="fill:#f2f2f2;fill-rule:nonzero;stroke:#ccc;stroke-width:4.17px;stroke-miterlimit:2;"/><path d="M1815.57,848.873c-24.373,-0 -44.13,-19.758 -44.13,-44.127c-0,-24.369 19.757,-44.126 44.13,-44.126c24.372,-0 44.126,19.757 44.126,44.126c-0,24.369 -19.754,44.127 -44.126,44.127" style="fill:#f2f2f2;fill-rule:nonzero;stroke:#ccc;stroke-width:4.17px;stroke-miterlimit:2;"/><path d="M1846.77,493.382c-17.231,17.231 -45.171,17.231 -62.402,-0c-17.235,-17.235 -17.235,-45.171 -0,-62.406c17.231,-17.231 45.171,-17.231 62.402,0c17.231,17.235 17.231,45.171 0,62.406" style="fill:#f2f2f2;fill-rule:nonzero;stroke:#ccc;stroke-width:4.17px;stroke-miterlimit:2;"/><text x="1554.28px" y="248.703px" style="font-family:'Martel-Heavy', 'Martel';font-weight:900;font-size:81.776px;fill:#2680e3;">1</text><text x="1204.61px" y="251.649px" style="font-family:'Martel-Heavy', 'Martel';font-weight:900;font-size:81.776px;fill:#2680e3;">8</text><text x="962.019px" y="483.607px" style="font-family:'Martel-Heavy', 'Martel';font-weight:900;font-size:81.776px;fill:#2680e3;">7</text><text x="958.12px" y="836.077px" style="font-family:'Martel-Heavy', 'Martel';font-weight:900;font-size:81.776px;fill:#2680e3;">6</text><text x="1202.22px" y="1065.81px" style="font-family:'Martel-Heavy', 'Martel';font-weight:900;font-size:81.776px;fill:#2680e3;">5</text><text x="1544.66px" y="1063.87px" style="font-family:'Martel-Heavy', 'Martel';font-weight:900;font-size:81.776px;fill:#2680e3;">4</text><text x="1795.02px" y="825.972px" style="font-family:'Martel-Heavy', 'Martel';font-weight:900;font-size:81.776px;fill:#2680e3;">3</text><text x="1790.78px" y="481.241px" style="font-family:'Martel-Heavy', 'Martel';font-weight:900;font-size:81.776px;fill:#2680e3;">2</text><path d="M1887.61,124.088c-0,-39.757 -32.278,-72.036 -72.036,-72.036c-39.757,0 -72.035,32.279 -72.035,72.036c-0,39.758 32.278,72.036 72.035,72.036c39.758,-0 72.036,-32.278 72.036,-72.036Z" style="fill:none;stroke:#ccc;stroke-width:6.49px;stroke-linejoin:miter;stroke-miterlimit:10;"/><path d="M1887.61,1136.3c-0,-39.758 -32.278,-72.037 -72.036,-72.037c-39.757,0 -72.035,32.279 -72.035,72.037c-0,39.759 32.278,72.038 72.035,72.038c39.758,-0 72.036,-32.279 72.036,-72.038Z" style="fill:none;stroke:#ccc;stroke-width:6.49px;stroke-linejoin:miter;stroke-miterlimit:10;"/><path d="M2126.78,804.748c0,-39.758 -32.278,-72.036 -72.035,-72.036c-39.758,-0 -72.036,32.278 -72.036,72.036c0,39.757 32.278,72.035 72.036,72.035c39.757,0 72.035,-32.278 72.035,-72.035Z" style="fill:none;stroke:#ccc;stroke-width:6.49px;stroke-linejoin:miter;stroke-miterlimit:10;"/><path d="M2145.89,462.179c0,-39.757 -32.278,-72.036 -72.035,-72.036c-39.758,0 -72.036,32.279 -72.036,72.036c-0,39.758 32.278,72.036 72.036,72.036c39.757,-0 72.035,-32.278 72.035,-72.036Z" style="fill:none;stroke:#ccc;stroke-width:6.49px;stroke-linejoin:miter;stroke-miterlimit:10;"/><path d="M913.906,1144.09c0,39.758 32.279,72.036 72.036,72.036c39.758,-0 72.036,-32.278 72.036,-72.036c-0,-39.757 -32.278,-72.035 -72.036,-72.035c-39.757,-0 -72.036,32.278 -72.036,72.035Z" style="fill:none;stroke:#ccc;stroke-width:6.49px;stroke-linejoin:miter;stroke-miterlimit:10;"/><path d="M913.906,131.881c0,39.758 32.279,72.036 72.036,72.036c39.758,-0 72.036,-32.278 72.036,-72.036c-0,-39.758 -32.278,-72.036 -72.036,-72.036c-39.757,0 -72.036,32.278 -72.036,72.036Z" style="fill:none;stroke:#ccc;stroke-width:6.49px;stroke-linejoin:miter;stroke-miterlimit:10;"/><path d="M674.733,463.433c-0,39.758 32.278,72.036 72.036,72.036c39.757,0 72.035,-32.278 72.035,-72.036c0,-39.757 -32.278,-72.035 -72.035,-72.035c-39.758,-0 -72.036,32.278 -72.036,72.035Z" style="fill:none;stroke:#ccc;stroke-width:6.49px;stroke-linejoin:miter;stroke-miterlimit:10;"/><path d="M658.812,820.649c-0,39.758 32.278,72.036 72.035,72.036c39.758,-0 72.036,-32.278 72.036,-72.036c0,-39.757 -32.278,-72.035 -72.036,-72.035c-39.757,-0 -72.035,32.278 -72.035,72.035Z" style="fill:none;stroke:#ccc;stroke-width:6.49px;stroke-linejoin:miter;stroke-miterlimit:10;"/><path d="M1822.65,1142.94c-9.42,9.697 -24.993,9.927 -34.689,0.5c-9.701,-9.433 -9.924,-24.989 -0.504,-34.703c9.42,-9.696 24.989,-9.927 34.693,-0.5c9.697,9.436 9.92,24.993 0.5,34.703m32.061,21.469l-18.917,-18.392c-1.004,-0.975 -2.232,-1.565 -3.51,-1.822c8.726,-12.947 7.247,-30.693 -4.321,-41.928c-13.004,-12.63 -33.863,-12.326 -46.489,0.674c-12.617,13.001 -12.313,33.839 0.671,46.469c11.585,11.239 29.364,12.206 42.04,3.11c0.291,1.271 0.931,2.479 1.936,3.457l18.916,18.393c2.766,2.672 7.158,2.606 9.814,-0.144c2.689,-2.749 2.629,-7.147 -0.14,-9.817" style="fill:#2680e3;fill-rule:nonzero;"/><g><path d="M2037.45,773.118c6.159,-0 11.175,5.015 11.175,11.175c-0,6.156 -5.016,11.172 -11.175,11.172c-6.16,-0 -11.172,-5.016 -11.172,-11.172c-0,-6.16 5.012,-11.175 11.172,-11.175m-24.486,18.282c0.557,1.902 1.328,3.734 2.299,5.456l-2.77,3.5c-0.91,1.142 -0.81,2.773 0.211,3.804l4.775,4.776c1.031,1.027 2.662,1.121 3.804,0.213l3.477,-2.746c1.788,1.028 3.69,1.828 5.669,2.396l0.524,4.474c0.17,1.445 1.395,2.533 2.839,2.533l6.764,0c1.445,0 2.666,-1.088 2.833,-2.533l0.504,-4.314c2.126,-0.554 4.164,-1.382 6.08,-2.456l3.36,2.659c1.145,0.908 2.773,0.801 3.801,-0.213l4.778,-4.778c1.031,-1.032 1.125,-2.663 0.217,-3.804l-2.616,-3.317c1.088,-1.879 1.935,-3.884 2.499,-5.977l4.034,-0.463c1.449,-0.171 2.536,-1.395 2.536,-2.843l0,-6.757c0,-1.452 -1.087,-2.673 -2.536,-2.84l-3.974,-0.464c-0.54,-2.075 -1.358,-4.058 -2.402,-5.913l2.449,-3.09c0.901,-1.144 0.804,-2.773 -0.217,-3.804l-4.768,-4.765c-1.028,-1.031 -2.656,-1.121 -3.801,-0.217l-3.003,2.376c-1.942,-1.141 -4.028,-2.012 -6.213,-2.599l-0.451,-3.884c-0.17,-1.452 -1.395,-2.536 -2.839,-2.536l-6.764,-0c-1.448,-0 -2.666,1.084 -2.837,2.536l-0.453,3.884c-2.243,0.597 -4.382,1.505 -6.374,2.693l-3.116,-2.47c-1.142,-0.904 -2.773,-0.804 -3.804,0.217l-4.775,4.779c-1.028,1.027 -1.121,2.659 -0.211,3.804l2.603,3.29c-1.048,1.878 -1.838,3.884 -2.356,5.969l-4.164,0.474c-1.452,0.17 -2.539,1.392 -2.539,2.84l-0,6.76c-0,1.448 1.087,2.67 2.539,2.84l4.388,0.51Z" style="fill:#2680e3;fill-rule:nonzero;"/><path d="M2086.73,819.961c-5.026,0.43 -9.467,-3.317 -9.881,-8.342c-0.43,-5.026 3.314,-9.464 8.342,-9.881c5.026,-0.43 9.46,3.314 9.884,8.342c0.427,5.022 -3.317,9.464 -8.345,9.881m17.535,-26.895l-3.564,-3.013c-1.101,-0.928 -2.719,-0.885 -3.761,0.1l-1.965,1.845c-1.665,-0.804 -3.437,-1.368 -5.255,-1.698l-0.558,-2.717c-0.28,-1.401 -1.581,-2.375 -3.006,-2.262l-4.655,0.397c-1.425,0.124 -2.546,1.291 -2.593,2.726l-0.09,2.763c-1.788,0.648 -3.474,1.528 -5.015,2.64l-2.353,-1.562c-1.201,-0.794 -2.796,-0.567 -3.724,0.531l-3.013,3.587c-0.931,1.097 -0.884,2.719 0.104,3.76l2.059,2.196c-0.711,1.608 -1.222,3.293 -1.519,5.025l-2.943,0.601c-1.401,0.283 -2.376,1.585 -2.265,3.01l0.393,4.655c0.127,1.424 1.295,2.546 2.733,2.589l3.18,0.103c0.581,1.519 1.335,2.953 2.252,4.302l-1.775,2.682c-0.797,1.202 -0.567,2.797 0.531,3.728l3.567,3.009c1.098,0.928 2.713,0.885 3.761,-0.103l2.329,-2.186c1.525,0.714 3.136,1.248 4.791,1.565l0.641,3.194c0.284,1.401 1.588,2.376 3.013,2.262l4.652,-0.397c1.428,-0.123 2.549,-1.288 2.592,-2.73l0.104,-3.123c1.695,-0.6 3.303,-1.415 4.788,-2.422l2.57,1.698c1.198,0.791 2.796,0.567 3.724,-0.53l3.009,-3.568c0.928,-1.097 0.885,-2.716 -0.1,-3.757l-2.072,-2.199c0.758,-1.605 1.308,-3.303 1.625,-5.048l2.836,-0.574c1.405,-0.284 2.376,-1.589 2.259,-3.014l-0.393,-4.651c-0.124,-1.428 -1.288,-2.549 -2.726,-2.593l-2.843,-0.09c-0.584,-1.655 -1.382,-3.217 -2.366,-4.665l1.551,-2.332c0.815,-1.201 0.591,-2.807 -0.51,-3.734" style="fill:#2680e3;fill-rule:nonzero;"/><path d="M2047.73,829.244c4.111,0.047 7.412,3.427 7.358,7.538c-0.047,4.111 -3.427,7.405 -7.541,7.358c-4.104,-0.043 -7.398,-3.427 -7.354,-7.538c0.046,-4.107 3.433,-7.404 7.537,-7.358m-18.482,3.237c-1.432,0.147 -2.526,1.348 -2.54,2.786l-0.033,2.863c-0.023,1.439 1.044,2.66 2.469,2.84l2.106,0.274c0.35,1.278 0.844,2.499 1.495,3.657l-1.358,1.675c-0.905,1.118 -0.838,2.726 0.166,3.757l2.009,2.049c1.008,1.031 2.613,1.145 3.758,0.26l1.688,-1.301c1.185,0.704 2.439,1.258 3.754,1.642l0.227,2.172c0.147,1.425 1.345,2.526 2.786,2.536l2.86,0.033c1.438,0.024 2.663,-1.041 2.843,-2.469l0.263,-2.059c1.425,-0.35 2.787,-0.881 4.075,-1.581l1.585,1.278c1.117,0.904 2.729,0.837 3.754,-0.171l2.055,-2.002c1.028,-1.011 1.138,-2.616 0.257,-3.76l-1.208,-1.572c0.744,-1.248 1.325,-2.573 1.719,-3.964l1.878,-0.19c1.425,-0.15 2.523,-1.348 2.533,-2.787l0.033,-2.866c0.027,-1.435 -1.038,-2.656 -2.466,-2.839l-1.835,-0.237c-0.35,-1.385 -0.868,-2.72 -1.548,-3.961l1.141,-1.405c0.908,-1.121 0.841,-2.73 -0.167,-3.757l-2.002,-2.052c-1.011,-1.032 -2.616,-1.145 -3.761,-0.257l-1.371,1.051c-1.285,-0.781 -2.666,-1.382 -4.118,-1.789l-0.183,-1.778c-0.144,-1.425 -1.345,-2.523 -2.783,-2.533l-2.863,-0.037c-1.442,-0.02 -2.663,1.041 -2.84,2.47l-0.233,1.765c-1.489,0.383 -2.927,0.974 -4.262,1.742l-1.418,-1.152c-1.121,-0.907 -2.723,-0.841 -3.757,0.167l-2.059,2.016c-1.034,1.011 -1.148,2.616 -0.263,3.757l1.211,1.565c-0.701,1.244 -1.258,2.569 -1.615,3.961l-1.982,0.203Z" style="fill:#2680e3;fill-rule:nonzero;"/></g><g transform="matrix(4.16667,0,0,4.16667,-294.44,-262.564)"><text x="528.907px" y="88.135px" style="font-family:'Martel-Heavy', 'Martel';font-weight:900;font-size:12px;fill:#2680e3;">S</text><text x="536.623px" y="88.135px" style="font-family:'Martel-Heavy', 'Martel';font-weight:900;font-size:12px;fill:#2680e3;">e</text><text x="543.763px" y="88.135px" style="font-family:'Martel-Heavy', 'Martel';font-weight:900;font-size:12px;fill:#2680e3;">lect Data and Model</text></g><text x="2172.41px" y="441.072px" style="font-family:'Martel-Heavy', 'Martel';font-weight:900;font-size:50px;fill:#2680e3;">Data Analysis</text><text x="2153.14px" y="787.076px" style="font-family:'Martel-Heavy', 'Martel';font-weight:900;font-size:50px;fill:#2680e3;">Test Settings</text><g transform="matrix(4.16667,0,0,4.16667,-289.654,-514.171)"><text x="529.14px" y="391.339px" style="font-family:'Martel-Heavy', 'Martel';font-weight:900;font-size:12px;fill:#2680e3;">Model Fairnes</text><text x="618.648px" y="391.339px" style="font-family:'Martel-Heavy', 'Martel';font-weight:900;font-size:12px;fill:#2680e3;">s</text></g><g transform="matrix(4.16667,0,0,4.16667,73.2691,-264.738)"><text x="96.649px" y="90.755px" style="font-family:'Martel-Heavy', 'Martel';font-weight:900;font-size:12px;fill:#2680e3;">Model</text><text x="96.649px" y="108.05px" style="font-family:'Martel-Heavy', 'Martel';font-weight:900;font-size:12px;fill:#2680e3;">Responsibility</text></g><g transform="matrix(4.16667,0,0,4.16667,82.3867,-346.974)"><text x="50.915px" y="189.732px" style="font-family:'Martel-Heavy', 'Martel';font-weight:900;font-size:12px;fill:#2680e3;">Model</text><text x="50.915px" y="207.027px" style="font-family:'Martel-Heavy', 'Martel';font-weight:900;font-size:12px;fill:#2680e3;">Explainability</text></g><text x="241.627px" y="796.124px" style="font-family:'Martel-Heavy', 'Martel';font-weight:900;font-size:50px;fill:#2680e3;">Model Security</text><text x="493.7px" y="1126.47px" style="font-family:'Martel-Heavy', 'Martel';font-weight:900;font-size:50px;fill:#2680e3;">Model Privacy</text><path d="M1887.61,124.088l409.917,0" style="fill:none;fill-rule:nonzero;stroke:#ccc;stroke-width:6.49px;stroke-linejoin:miter;stroke-miterlimit:10;"/><path d="M2145.55,460.493l380.155,0" style="fill:none;fill-rule:nonzero;stroke:#ccc;stroke-width:6.49px;stroke-linejoin:miter;stroke-miterlimit:10;"/><path d="M2126.43,806.497l380.156,0" style="fill:none;fill-rule:nonzero;stroke:#ccc;stroke-width:6.49px;stroke-linejoin:miter;stroke-miterlimit:10;"/><path d="M1888.38,1135.82l456.055,0" style="fill:none;fill-rule:nonzero;stroke:#ccc;stroke-width:6.49px;stroke-linejoin:miter;stroke-miterlimit:10;"/><path d="M913.906,132.828l-438.17,-0" style="fill:none;fill-rule:nonzero;stroke:#ccc;stroke-width:6.49px;stroke-linejoin:miter;stroke-miterlimit:10;"/><path d="M675.082,463.096l-380.156,0" style="fill:none;fill-rule:nonzero;stroke:#ccc;stroke-width:6.49px;stroke-linejoin:miter;stroke-miterlimit:10;"/><path d="M659.16,820.714l-380.155,0" style="fill:none;fill-rule:nonzero;stroke:#ccc;stroke-width:6.49px;stroke-linejoin:miter;stroke-miterlimit:10;"/><path d="M913.128,1145.89l-456.056,0" style="fill:none;fill-rule:nonzero;stroke:#ccc;stroke-width:6.49px;stroke-linejoin:miter;stroke-miterlimit:10;"/><path d="M1437.67,615.231c-3.116,3.898 -6.759,7.325 -10.885,10.135l-3.232,13.111l-39.945,0l-2.366,-9.668c-5.587,-2.844 -10.412,-6.87 -14.25,-11.829c-8.085,0.95 -16.199,1.461 -24.29,2.438l0.378,19.059l-36.075,0c2.749,-4.976 6.492,-9.224 11.779,-12.323c5.459,-3.193 12.595,-5.886 20.508,-8.124c2.477,-0.7 5.032,-1.355 7.636,-1.972c-16.188,0.106 -32.787,-3.843 -35.402,-11.212c20.402,-1.655 27.905,-20.075 30.415,-42.061c3.837,-33.648 -1.483,-69.439 39.018,-85.804c32.159,-13.006 73.748,4.498 78.285,50.835c-0.189,31.482 8.663,74.742 36.841,77.03c-2.865,8.075 -22.796,11.851 -40.795,10.674c11.368,3.037 22.564,6.486 30.677,10.745c5.492,2.888 9.563,7.125 12.639,12.212l-36.579,0l0.683,-18.481c-8.447,-1.272 -16.694,-3.005 -25.04,-4.765Zm-141.672,29.005l214.359,-0c5.454,-0 9.885,5.109 9.063,11.351l-11.851,89.87c-0.81,6.186 -5.103,11.345 -11.345,11.345l-186.092,0c-6.242,0 -10.535,-5.159 -11.346,-11.345l-11.851,-89.87c-0.822,-6.242 3.61,-11.351 9.063,-11.351Zm106.147,42.344c7.514,0 13.606,6.092 13.606,13.611c-0,7.514 -6.092,13.606 -13.606,13.606c-7.519,0 -13.611,-6.092 -13.611,-13.606c-0,-7.519 6.092,-13.611 13.611,-13.611Zm-32.082,-74.148c3.382,4.465 7.575,7.947 12.19,10.457c6.892,3.748 14.744,5.37 22.341,4.959c7.58,-0.411 14.899,-2.843 20.731,-7.203c3.459,-2.587 6.397,-5.858 8.557,-9.779c-4.548,-2.11 -7.697,-4.926 -8.508,-8.48c-7.646,5.881 -16.16,9.457 -24.762,9.457c-7.452,0 -14.616,-2.66 -21.114,-7.163c-1.182,3.337 -4.653,5.903 -9.435,7.752Zm44.482,-105.408c-18.914,19.159 -38.873,26.662 -59.937,31.971c-0.311,2.51 -0.2,0.766 -0.2,3.382c0,28.949 21.836,63.708 46.204,63.708c24.368,-0 49.019,-34.759 49.019,-63.708c0,-5.637 -0.666,-7.869 -2.049,-12.962c-18.403,-0.211 -25.567,-9.457 -33.037,-22.391Z" style="fill:#2680e3;"/><path d="M1401.64,1397.25l0,-643.951l30.754,-30.754" style="fill:none;fill-rule:nonzero;stroke:#2680e3;stroke-width:8.33px;stroke-linejoin:miter;stroke-miterlimit:10;stroke-dasharray:0,8.33,8.33,0;"/><path d="M2739.81,1491.46l-170.016,170.015l-1088.46,0l-66.954,62.412l-70.794,-62.412l-1149.49,0l-154.957,-154.956" style="fill:none;stroke:#2680e3;stroke-width:12.5px;stroke-dasharray:0,12.5,12.5,0;"/><g transform="matrix(4.16667,0,0,4.16667,1034.96,1397.25)"><text x="19.098px" y="11.144px" style="font-family:'Martel-Heavy', 'Martel';font-weight:900;font-size:14px;fill:#2680e3;">Human in the</text><text x="122.53px" y="11.144px" style="font-family:'Martel-Heavy', 'Martel';font-weight:900;font-size:14px;fill:#2680e3;">loop</text></g><text x="1161.67px" y="1788.2px" style="font-family:'Martel-Heavy', 'Martel';font-weight:900;font-size:58.333px;fill:#2680e3;">Trustworthiness</text><path d="M1293.07,1826.21l210.218,0c3.427,0 6.223,2.797 6.223,6.228l0,42.921l-0.359,-0.286c-3.083,-2.49 -6.26,-4.38 -9.504,-5.739l0,-27.126c0,-3.021 -2.463,-5.494 -5.499,-5.494l-191.919,-0c-3.031,-0 -5.52,2.463 -5.504,5.494l-0,101.625c-0,3.02 2.478,5.499 5.504,5.499l139.37,0c1.145,3.333 3.02,6.614 5.441,9.176c-8.712,2.197 -18.309,3.937 -25.73,9.228l-128.241,-0c-3.432,-0 -6.228,-2.802 -6.228,-6.229l-0,-129.069c-0,-3.431 2.796,-6.228 6.228,-6.228Zm258.518,180.171l-127.283,-0c-1.041,-0 -1.88,-0.839 -1.88,-1.88c0,-0.537 0.073,-1.068 0.203,-1.588c3.016,-23.898 15.363,-24.315 28.658,-27.788c3.973,-1.041 11.211,-3.244 15.435,-6.942c2.317,-2.036 3.728,-4.53 3.166,-7.53c-3.213,-2.973 -5.681,-6.191 -6.239,-12.326l-0.385,0.005c-0.891,-0.01 -1.755,-0.213 -2.552,-0.672c-1.77,-1.005 -2.744,-2.937 -3.213,-5.139c-0.593,-2.786 -0.396,-6.093 -0.109,-8.181l0.109,-0.407c0.62,-1.723 1.385,-2.661 2.354,-3.067l0.031,-0.01c-0.448,-8.296 0.958,-21.435 -7.561,-24.012c16.815,-20.778 36.203,-32.089 50.763,-13.597c16.216,0.849 23.45,24.757 13.378,37.619l-0.422,0c0.969,0.406 1.735,1.344 2.349,3.067l0.115,0.407c0.286,2.088 0.479,5.395 -0.115,8.181c-0.463,2.202 -1.437,4.134 -3.208,5.139c-0.802,0.459 -1.661,0.662 -2.552,0.672l-0.385,-0.005c-0.557,6.135 -3.031,9.353 -6.239,12.326c-0.562,3 0.849,5.494 3.167,7.53c4.223,3.698 11.461,5.901 15.435,6.942c13.289,3.473 25.642,3.89 28.657,27.788c0.13,0.52 0.203,1.051 0.203,1.588c0,1.041 -0.844,1.88 -1.88,1.88Zm-181.655,-30.053l43.311,0c-3.817,6.02 -8.821,21.903 -7.915,30.23l-50.477,-0c8.78,-6.364 15.118,-18.872 15.081,-30.23Z" style="fill:#2680e3;"/><path d="M1356.68,1887.53l10.804,-0.144l0.805,0.209c3.791,2.186 7.183,4.914 10.121,8.157c3.876,-6.237 8.005,-11.963 12.368,-17.229c4.778,-5.772 9.849,-11.007 15.175,-15.785l1.055,-0.405l11.789,-0l-2.376,2.64c-7.306,8.118 -13.934,16.507 -19.923,25.159c-5.992,8.66 -11.348,17.599 -16.11,26.8l-1.482,2.86l-1.363,-2.913c-4.972,-10.672 -11.982,-19.76 -21.743,-26.462l0.88,-2.887Zm20.631,-37.812c6.772,0 13.417,1.508 19.522,4.439c0.393,0.188 0.562,0.666 0.373,1.06c-0.054,0.113 -0.132,0.208 -0.225,0.282l-6.612,5.411c-0.229,0.191 -0.546,0.24 -0.823,0.126c-3.92,-1.419 -8.057,-2.132 -12.227,-2.132c-9.558,-0 -18.631,3.749 -25.387,10.513c-6.762,6.765 -10.515,15.822 -10.515,25.387c-0,9.561 3.75,18.626 10.513,25.386c6.767,6.764 15.822,10.517 25.389,10.517c9.55,-0 18.633,-3.753 25.384,-10.515c6.766,-6.762 10.516,-15.824 10.516,-25.388c-0,-2.325 -0.214,-4.613 -0.661,-6.897c-0.048,-0.248 0.026,-0.497 0.181,-0.675l5.832,-7.39c0.275,-0.342 0.779,-0.393 1.12,-0.118c0.129,0.104 0.215,0.24 0.261,0.387c1.629,4.726 2.452,9.696 2.452,14.693c-0,11.983 -4.733,23.406 -13.207,31.88c-8.471,8.47 -19.899,13.208 -31.878,13.208c-11.982,0 -23.406,-4.736 -31.879,-13.208l-0.032,-0.035c-8.461,-8.474 -13.183,-19.87 -13.183,-31.845c-0,-11.98 4.732,-23.404 13.206,-31.878l0.035,-0.031c8.474,-8.455 19.875,-13.177 31.845,-13.177Z" style="fill:#2680e3;fill-rule:nonzero;"/><path d="M1791.22,76.011l40.072,0c0.677,0 1.29,0.251 1.713,0.653l22.946,18.898c0.469,0.386 0.705,0.904 0.705,1.42l0.007,56.586c-0,6.01 -5.794,10.97 -12.815,10.97l-52.628,-0c-7.03,-0 -12.817,-4.953 -12.817,-10.97l-0,-66.585c-0,-6.026 5.779,-10.972 12.817,-10.972Zm42.911,7.044l0,5.257c0.485,5.479 4.817,7.548 10.823,7.636l4.821,-0.007l-15.644,-12.886Zm17.919,16.613c-0.318,0.14 -0.678,0.22 -1.06,0.22l-6.074,-0.009c-8.449,-0.116 -14.702,-3.702 -15.375,-11.281l-0.025,-0.286l0,-8.352l-38.296,-0c-4.522,-0 -8.204,3.152 -8.204,7.023l-0,32.297l69.034,-0.021l-0,-19.591Zm-69.034,23.521l-0,30.379c-0,3.863 3.692,7.021 8.204,7.021l52.628,-0c4.481,-0 8.202,-3.185 8.202,-7.021l-0,-30.359l-69.034,-0.02Zm8.293,-22.432l6.123,0c0.228,0 0.38,0.13 0.38,0.326l0,15.166c0,0.194 -0.152,0.325 -0.38,0.325l-6.123,0c-0.231,0 -0.385,-0.131 -0.385,-0.325l0,-15.166c-0.072,-0.196 0.154,-0.326 0.385,-0.326Zm11.587,-6.225l6.121,0c0.231,0 0.38,0.128 0.38,0.325l0,21.392c0,0.194 -0.149,0.325 -0.38,0.325l-6.121,0c-0.227,0 -0.38,-0.131 -0.38,-0.325l-0,-21.392c-0,-0.197 0.153,-0.325 0.38,-0.325Zm34.756,13.696l6.123,0c0.231,0 0.382,0.132 0.382,0.328l0,7.627c0,0.194 -0.151,0.322 -0.382,0.322l-6.123,-0c-0.225,-0 -0.374,-0.128 -0.374,-0.322l-0,-7.627c-0,-0.132 0.149,-0.328 0.374,-0.328Zm-23.171,-3.704l6.123,-0c0.231,-0 0.381,0.13 0.381,0.325l-0,11.334c-0,0.194 -0.15,0.322 -0.381,0.322l-6.123,-0c-0.224,-0 -0.374,-0.128 -0.374,-0.322l0,-11.334c0,-0.129 0.15,-0.325 0.374,-0.325Zm11.583,-2.64l6.124,0c0.228,0 0.382,0.137 0.382,0.327l-0,14.038c-0,0.194 -0.154,0.325 -0.382,0.325l-6.124,0c-0.228,0 -0.38,-0.131 -0.38,-0.325l0,-14.038c0,-0.19 0.152,-0.327 0.38,-0.327Zm-6.794,42.185l12.196,0.185c-0,3.746 -2.152,7.186 -5.739,9.274l-6.457,-9.459Zm-0.815,-16.156c2.867,0.188 4.803,0.49 7.391,1.596c4.952,2.212 8.398,6.633 8.683,11.673l0.071,0.798l-0.932,-0l-14.135,-0.371l-0.793,0l-0.285,-13.696Zm1.866,12.223l12.415,0.308c-0.74,-6.13 -5.735,-9.827 -12.558,-10.997l0.143,10.689Zm-5.144,2.846l6.96,10.321c-2.151,1.044 -4.517,1.599 -6.96,1.599c-7.678,0 -13.921,-5.345 -13.921,-11.92c-0,-6.388 5.885,-11.671 13.347,-11.919l0.574,11.919Z" style="fill:#2680e3;fill-rule:nonzero;"/><g><path d="M2098.11,469.292c4.754,-0 9.061,1.933 12.185,5.042c3.124,3.124 5.042,7.416 5.042,12.185c0,3.473 -1.038,6.718 -2.805,9.425l7.454,8.121l-5.141,4.702l-7.189,-7.909c-2.729,1.82 -6.013,2.881 -9.539,2.881c-4.754,0 -9.061,-1.933 -12.177,-5.042c-3.124,-3.124 -5.043,-7.416 -5.043,-12.178c0,-4.754 1.934,-9.061 5.043,-12.185c3.109,-3.124 7.408,-5.042 12.17,-5.042Zm-57.651,-22.718l0,35.707c0,0.204 0.076,0.394 0.205,0.523c0.129,0.129 0.311,0.212 0.523,0.212l32.249,0c2.222,0.228 2.29,4.072 -0,4.406l-20.64,-0l0,8.189c0,0.212 0.076,0.394 0.212,0.523c0.129,0.129 0.311,0.205 0.524,0.205l19.912,-0c1.607,0.182 2.13,3.837 -0,4.405l-19.89,0c-1.41,0 -2.714,-0.576 -3.624,-1.516c-0.94,-0.94 -1.517,-2.214 -1.517,-3.625l0,-8.189l-7.203,0c-1.411,0 -2.715,-0.576 -3.625,-1.516c-0.94,-0.941 -1.516,-2.215 -1.516,-3.625l-0,-61.54c0.007,-1.411 0.584,-2.715 1.524,-3.625c0.94,-0.94 2.214,-1.516 3.624,-1.516l54.08,-0c1.41,-0 2.714,0.576 3.624,1.508c0.94,0.941 1.509,2.222 1.509,3.625l0,8.189l7.204,0c1.41,0 2.714,0.576 3.624,1.509c0.94,0.94 1.517,2.222 1.517,3.625l-0,28.078c-0.152,1.608 -4.103,1.63 -4.436,0l-0,-28.063c-0,-0.213 -0.076,-0.394 -0.205,-0.523c-0.129,-0.129 -0.311,-0.213 -0.523,-0.213l-7.204,0l0,28.807c-0.386,1.455 -3.67,1.675 -4.405,-0l-0,-15.56l-55.543,0Zm0,-4.057l55.543,0l-0,-21.784c-0,-0.213 -0.076,-0.395 -0.213,-0.524c-0.128,-0.129 -0.31,-0.212 -0.523,-0.212l-54.079,0c-0.212,0 -0.394,0.076 -0.523,0.212c-0.129,0.129 -0.205,0.311 -0.205,0.524l0,21.784Zm25.159,-10.593l3.579,0c0.19,0 0.319,0.129 0.319,0.319l-0,7.931c-0,0.19 -0.129,0.319 -0.319,0.319l-3.579,-0c-0.189,-0 -0.318,-0.129 -0.318,-0.319l-0,-7.931c-0,-0.121 0.129,-0.319 0.318,-0.319Zm17.637,0l3.579,0c0.19,0 0.319,0.129 0.319,0.319l-0,7.931c-0,0.19 -0.129,0.319 -0.319,0.319l-3.579,-0c-0.189,-0 -0.318,-0.129 -0.318,-0.319l-0,-7.931c-0,-0.121 0.129,-0.319 0.318,-0.319Zm-8.818,-6.71l3.579,-0c0.197,-0 0.318,0.129 0.318,0.318l0,14.703c0,0.19 -0.129,0.319 -0.318,0.319l-3.579,-0c-0.19,-0 -0.319,-0.129 -0.319,-0.319l0,-14.703c0,-0.189 0.129,-0.318 0.319,-0.318Zm-26.448,2.426l3.579,0c0.189,0 0.318,0.129 0.318,0.319l0,12.276c0,0.19 -0.129,0.319 -0.318,0.319l-3.579,-0c-0.19,-0 -0.319,-0.129 -0.319,-0.319l0,-12.269c-0.06,-0.197 0.129,-0.326 0.319,-0.326Zm8.811,-2.426l3.579,-0c0.189,-0 0.318,0.129 0.318,0.318l0,14.703c0,0.19 -0.129,0.319 -0.318,0.319l-3.579,-0c-0.19,-0 -0.319,-0.129 -0.319,-0.319l0,-14.703c0,-0.189 0.129,-0.318 0.319,-0.318Zm11.647,41.318l9.971,0.174c-0,3.579 -1.759,6.862 -4.694,8.856l-5.277,-9.03Zm-0.546,-3.049l-0.114,-11.616l-0,-0.766l0.766,0.061c0.94,0.06 1.88,0.235 2.76,0.47c0.879,0.235 1.698,0.584 2.525,0.993c4.049,2.116 6.862,6.339 7.097,11.146l0.061,0.766l-0.766,0l-11.556,-0.348l-0.644,-0l-0.129,-0.706Zm1.289,-10.919l0.113,10.214l10.154,0.296c-0.41,-3.989 -2.874,-7.454 -6.279,-9.266c-0.705,-0.356 -1.463,-0.652 -2.229,-0.887c-0.645,-0.122 -1.175,-0.235 -1.759,-0.357Zm-4.087,12.929l5.694,9.857c-1.759,1.001 -3.693,1.524 -5.694,1.524c-6.279,0 -11.382,-5.103 -11.382,-11.389c0,-6.104 4.815,-11.146 10.912,-11.381l0.47,11.389Zm42.167,11.859c-2.343,-2.343 -5.581,-3.799 -9.16,-3.799c-3.572,0 -6.817,1.456 -9.16,3.799c-2.343,2.343 -3.799,5.581 -3.799,9.16c0,3.571 1.456,6.816 3.799,9.16c2.343,2.343 5.581,3.798 9.16,3.798c3.571,0 6.817,-1.455 9.16,-3.798c2.343,-2.344 3.798,-5.589 3.798,-9.16c0,-3.572 -1.455,-6.817 -3.798,-9.16Z" style="fill:#2680e3;"/><path d="M731.896,773.628c17.196,10.901 32.732,16.057 46.064,14.838c2.329,47.097 -15.064,74.911 -45.886,86.519c-29.765,-10.864 -47.37,-37.481 -46.064,-87.233c15.651,0.819 31.006,-2.564 45.886,-14.124Zm0.371,16.12c11.727,7.433 22.321,10.949 31.413,10.119c1.588,32.117 -10.273,51.083 -31.291,58.998c-0.133,-0.048 -0.263,-0.099 -0.395,-0.148l0,-68.76l0.273,-0.209Zm-0.353,-10.301c15.222,9.649 28.974,14.214 40.776,13.134c2.06,41.689 -13.335,66.31 -40.617,76.584c-26.347,-9.617 -41.933,-33.176 -40.776,-77.216c13.855,0.726 27.447,-2.269 40.617,-12.502Z" style="fill:#2680e3;"/><path d="M953.217,1126.65l3.418,0l0,-7.921c0,-8.766 3.456,-16.761 9.025,-22.567c5.616,-5.853 13.366,-9.49 21.907,-9.49c8.538,0 16.295,3.633 21.904,9.49c5.572,5.806 9.029,13.798 9.029,22.567l0,7.921l3.418,0c2.776,0 5.048,2.272 5.048,5.048l0,53.335c0,2.776 -2.272,5.048 -5.048,5.048l-68.701,-0c-2.78,-0 -5.048,-2.272 -5.048,-5.048l0,-53.335c-0.002,-2.776 2.268,-5.048 5.048,-5.048Zm30.207,35.136l-5.449,14.263l19.179,0l-5.044,-14.46c3.203,-1.647 5.392,-4.985 5.392,-8.833c-0,-5.49 -4.448,-9.935 -9.937,-9.935c-5.486,0 -9.931,4.445 -9.931,9.935c-0.004,4.005 2.371,7.456 5.79,9.03Zm-17.235,-35.136l42.753,0l-0,-7.921c-0,-6.234 -2.43,-11.884 -6.34,-15.962c-3.868,-4.034 -9.191,-6.54 -15.037,-6.54c-5.844,0 -11.171,2.506 -15.037,6.54c-3.913,4.078 -6.339,9.728 -6.339,15.962l-0,7.921Z" style="fill:#2680e3;"/><g><path d="M770.583,450.315l-36.585,16.122l0,45.961l36.585,-18.593l0,-43.49Zm-41.154,62.04l-0,-45.939l-36.715,-16.645l0,43.432l36.715,19.152Zm-30.304,-33.09c-0,-0.874 0.709,-1.59 1.59,-1.59c0.874,0 1.59,0.709 1.59,1.59l-0,6.468c-0,0.05 -0,0.107 -0.007,0.157c-0,0.222 0.028,0.401 0.078,0.537c0.022,0.043 0.043,0.086 0.086,0.115l3.961,1.841c0.795,0.365 1.139,1.31 0.774,2.098c-0.366,0.795 -1.304,1.139 -2.099,0.774l-4.054,-1.884c-0.071,-0.029 -0.143,-0.064 -0.215,-0.114c-0.651,-0.409 -1.103,-0.96 -1.382,-1.641c-0.222,-0.544 -0.322,-1.146 -0.315,-1.79l-0,-6.561l-0.007,0Zm32.438,-44.199l-34.723,11.567l34.888,15.822l34.888,-15.378l-35.053,-12.011Z" style="fill:#9d9d9d;"/><path d="M750.373,410.72l0.01,0c24.336,0 44.362,20.026 44.362,44.362c0,8.63 -2.518,17.074 -7.244,24.295l19.191,20.919l-13.235,12.102l-18.512,-20.398c-7.279,4.843 -15.829,7.428 -24.572,7.428c-24.332,-0 -44.354,-20.022 -44.354,-44.354c0,-24.332 20.022,-44.354 44.354,-44.354Zm-6.299,52.725l-0,-1.05c-0.047,-1.946 0.142,-3.89 0.562,-5.791c1.167,-4.367 3.822,-5.161 6.949,-7.601c1.323,-1.01 2.399,-2.267 2.399,-4.004c-0,-3.152 -3.565,-4.574 -6.121,-3.135c-1.382,0.731 -2.235,2.185 -2.201,3.747l-11.225,0c0,-5.683 2.482,-10.116 7.9,-12.275c5.226,-1.879 10.944,-1.893 16.18,-0.042c5.004,1.87 7.932,5.567 7.932,10.994c0.05,1.61 -0.246,3.212 -0.868,4.698c-2.2,4.839 -5.625,5.178 -8.942,8.206c-2.06,1.861 -2.167,3.705 -2.167,6.253l-10.398,0Zm5.352,14.741c-1.632,0.026 -3.205,-0.617 -4.351,-1.779c-1.182,-1.134 -1.834,-2.714 -1.795,-4.351c-0.023,-1.609 0.632,-3.156 1.803,-4.26c2.37,-2.345 6.242,-2.345 8.611,0c1.203,1.099 1.889,2.656 1.886,4.285c-0.009,1.094 -0.318,2.164 -0.893,3.094c-0.56,0.909 -1.332,1.67 -2.25,2.217c-0.905,0.549 -1.945,0.836 -3.003,0.827l-0.008,-0.033Zm28.811,-50.98c-7.385,-7.364 -17.398,-11.503 -27.827,-11.503c-21.618,-0 -39.407,17.789 -39.407,39.407c0,21.618 17.789,39.407 39.407,39.407c21.618,-0 39.407,-17.789 39.407,-39.407c0,-0.012 0,-0.024 0,-0.036c0.006,-10.457 -4.166,-20.494 -11.58,-27.868Z" style="fill:#2680e3;"/></g></g></g></svg>