<?xml version="1.0" encoding="UTF-8" standalone="no"?><!DOCTYPE svg PUBLIC "-//W3C//DTD SVG 1.1//EN" "http://www.w3.org/Graphics/SVG/1.1/DTD/svg11.dtd"><svg width="100%" height="100%" viewBox="0 0 3650 2588" version="1.1" xmlns="http://www.w3.org/2000/svg" xmlns:xlink="http://www.w3.org/1999/xlink" xml:space="preserve" xmlns:serif="http://www.serif.com/" style="fill-rule:evenodd;clip-rule:evenodd;stroke-linejoin:round;stroke-miterlimit:1.5;"><rect id="ArtBoard1" x="0" y="0" width="3649.58" height="2587.86" style="fill:none;"/><g id="objects"><circle cx="1824.79" cy="1111.42" r="449.578" style="fill:none;stroke:#595959;stroke-width:54.17px;"/><path d="M684.515,1182.38c-0,-16.015 -13.002,-29.017 -29.017,-29.017l-383.945,0c-16.014,0 -29.017,13.002 -29.017,29.017l0,58.034c0,16.015 13.003,29.017 29.017,29.017l383.945,-0c16.015,-0 29.017,-13.002 29.017,-29.017l-0,-58.034Z" style="fill:#2680e3;"/><path d="M2000.38,1524.93l0,0" style="fill:none;fill-rule:nonzero;stroke:#595959;stroke-width:6.33px;stroke-linecap:round;stroke-miterlimit:4;"/><path d="M2011.21,1535.76l78.493,78.493l65.075,-0" style="fill:none;fill-rule:nonzero;stroke:#595959;stroke-width:6.33px;stroke-linecap:round;stroke-miterlimit:4;stroke-dasharray:0,19.12;"/><path d="M2162.43,1614.26l-0,-0" style="fill:none;fill-rule:nonzero;stroke:#595959;stroke-width:6.33px;stroke-linecap:round;stroke-miterlimit:4;"/><path d="M2242.61,1282.7l0,0" style="fill:none;fill-rule:nonzero;stroke:#595959;stroke-width:6.33px;stroke-linecap:round;stroke-miterlimit:4;"/><path d="M2258.34,1282.7l133.717,0" style="fill:none;fill-rule:nonzero;stroke:#595959;stroke-width:6.33px;stroke-linecap:round;stroke-miterlimit:4;stroke-dasharray:0,19.65;"/><path d="M2399.93,1282.7l0,0" style="fill:none;fill-rule:nonzero;stroke:#595959;stroke-width:6.33px;stroke-linecap:round;stroke-miterlimit:4;"/><path d="M2242.61,940.134l0,-0" style="fill:none;fill-rule:nonzero;stroke:#595959;stroke-width:6.33px;stroke-linecap:round;stroke-miterlimit:4;"/><path d="M2253.15,929.597l77.398,-77.402l61.931,0" style="fill:none;fill-rule:nonzero;stroke:#595959;stroke-width:6.33px;stroke-linecap:round;stroke-miterlimit:4;stroke-dasharray:0,18.61;"/><path d="M2160.5,602.775l-0,-0" style="fill:none;fill-rule:nonzero;stroke:#595959;stroke-width:6.33px;stroke-linecap:round;stroke-miterlimit:4;"/><g><path d="M2218.03,590.374c2.793,0 5.389,-0.817 7.584,-2.206c0.705,-4.558 3.157,-8.552 6.647,-11.265c0.014,-0.263 0.04,-0.527 0.04,-0.797c0,-7.882 -6.393,-14.275 -14.271,-14.275c-7.882,-0 -14.268,6.393 -14.268,14.275c-0,7.875 6.386,14.268 14.268,14.268" style="fill:#262626;fill-rule:nonzero;"/><path d="M2243.07,605.103c7.888,0 14.272,-6.386 14.272,-14.271c-0,-7.882 -6.384,-14.265 -14.272,-14.265c-7.878,-0 -14.268,6.383 -14.268,14.268c-0,7.882 6.39,14.268 14.268,14.268" style="fill:#262626;fill-rule:nonzero;"/><path d="M2260.65,589.025c1.832,0.851 3.87,1.341 6.026,1.341c7.885,0 14.275,-6.383 14.275,-14.261c-0,-7.888 -6.39,-14.272 -14.275,-14.272c-7.808,0 -14.142,6.27 -14.262,14.052c4.502,2.819 7.658,7.591 8.236,13.14" style="fill:#262626;fill-rule:nonzero;"/><path d="M2272.74,591.347l-12.016,-0c-0.13,4.805 -2.179,9.136 -5.429,12.253c8.956,2.659 15.509,10.965 15.509,20.775l0,4.561c11.869,-0.437 18.7,-3.797 19.15,-4.021l0.951,-0.487l0.107,0l0,-14.812c0,-10.074 -8.198,-18.269 -18.272,-18.269" style="fill:#262626;fill-rule:nonzero;"/><path d="M2249.12,606.076l-12.11,-0c-10.073,-0 -18.272,8.202 -18.272,18.276l-0,14.812l0.043,0.23l1.018,0.321c9.61,2.999 17.966,4.004 24.846,4.004c13.428,-0 21.206,-3.828 21.696,-4.074l0.941,-0.481l0.104,0l-0,-14.812c0.013,-10.074 -8.189,-18.276 -18.266,-18.276" style="fill:#262626;fill-rule:nonzero;"/><path d="M2230.85,603.599c-3.23,-3.103 -5.275,-7.407 -5.425,-12.186c-0.448,-0.03 -0.891,-0.067 -1.338,-0.067l-12.113,0c-10.077,0 -18.273,8.196 -18.273,18.27l0,14.812l0.04,0.23l1.015,0.324c7.715,2.406 14.602,3.513 20.588,3.861l0,-4.468c0,-9.811 6.544,-18.116 15.506,-20.776" style="fill:#262626;fill-rule:nonzero;"/><path d="M2242.36,674.059l0,0" style="fill:none;fill-rule:nonzero;"/></g><path d="M2000.38,697.903l0,0" style="fill:none;fill-rule:nonzero;stroke:#595959;stroke-width:6.33px;stroke-linecap:round;stroke-miterlimit:4;"/><path d="M2011.32,686.961l84.915,-84.919l57.875,-0" style="fill:none;fill-rule:nonzero;stroke:#595959;stroke-width:6.33px;stroke-linecap:round;stroke-miterlimit:4;stroke-dasharray:0,19.33;"/><path d="M2161.85,602.043l-0,-0" style="fill:none;fill-rule:nonzero;stroke:#595959;stroke-width:6.33px;stroke-linecap:round;stroke-miterlimit:4;"/><path d="M1657.81,697.903l-0,0" style="fill:none;fill-rule:nonzero;stroke:#595959;stroke-width:6.33px;stroke-linecap:round;stroke-miterlimit:4;"/><path d="M1647.22,687.308l-78.726,-78.726l-75.98,-0" style="fill:none;fill-rule:nonzero;stroke:#595959;stroke-width:6.33px;stroke-linecap:round;stroke-miterlimit:4;stroke-dasharray:0,18.71;"/><path d="M1485.02,608.582l-0,0" style="fill:none;fill-rule:nonzero;stroke:#595959;stroke-width:6.33px;stroke-linecap:round;stroke-miterlimit:4;"/><path d="M1415.58,940.134l0,-0" style="fill:none;fill-rule:nonzero;stroke:#595959;stroke-width:6.33px;stroke-linecap:round;stroke-miterlimit:4;"/><path d="M1399.85,940.134l-133.721,-0" style="fill:none;fill-rule:nonzero;stroke:#595959;stroke-width:6.33px;stroke-linecap:round;stroke-miterlimit:4;stroke-dasharray:0,19.65;"/><path d="M1258.26,940.134l-0,-0" style="fill:none;fill-rule:nonzero;stroke:#595959;stroke-width:6.33px;stroke-linecap:round;stroke-miterlimit:4;"/><path d="M1405.04,1293.24l-77.401,77.398l-61.929,0" style="fill:none;fill-rule:nonzero;stroke:#595959;stroke-width:6.33px;stroke-linecap:round;stroke-miterlimit:4;stroke-dasharray:0,18.61;"/><path d="M1258.26,1370.64l-0,0" style="fill:none;fill-rule:nonzero;stroke:#595959;stroke-width:6.33px;stroke-linecap:round;stroke-miterlimit:4;"/><path d="M1647.16,1535.59l-79.884,79.88" style="fill:none;fill-rule:nonzero;stroke:#595959;stroke-width:6.32px;stroke-linecap:round;stroke-miterlimit:4;stroke-dasharray:0,18.81;"/><path d="M1561.95,1620.79l0,0" style="fill:none;fill-rule:nonzero;stroke:#595959;stroke-width:6.33px;stroke-linecap:round;stroke-miterlimit:4;"/><path d="M1546.56,1620.79l-53.854,0" style="fill:none;fill-rule:nonzero;stroke:#595959;stroke-width:6.33px;stroke-linecap:round;stroke-miterlimit:4;stroke-dasharray:0,19.21;"/><g><path d="M1485.02,1620.79l-0,0" style="fill:none;fill-rule:nonzero;"/><path d="M1435.08,1610.98c2.97,4.835 4.722,10.497 4.722,16.584c-0,17.522 -14.255,31.777 -31.784,31.777c-17.528,-0 -31.786,-14.255 -31.786,-31.777c-0,-17.529 14.258,-31.787 31.786,-31.787c6.077,0 11.746,1.749 16.581,4.718l4.852,-4.858c-6.127,-4.128 -13.501,-6.544 -21.433,-6.544c-21.209,0 -38.463,17.259 -38.463,38.471c-0,21.209 17.254,38.46 38.463,38.46c21.206,0 38.464,-17.251 38.464,-38.46c0,-7.935 -2.419,-15.31 -6.543,-21.439l-4.859,4.855Z" style="fill:#262626;fill-rule:nonzero;"/><path d="M1418.8,1606.29c-3.243,-1.655 -6.904,-2.603 -10.791,-2.603c-13.167,0 -23.882,10.715 -23.882,23.882c0,13.164 10.715,23.875 23.882,23.875c13.167,0 23.882,-10.711 23.882,-23.875c-0,-3.891 -0.951,-7.551 -2.606,-10.795l-5.116,5.116c0.628,1.782 1.041,3.677 1.041,5.679c0,9.483 -7.718,17.195 -17.201,17.195c-9.483,-0 -17.198,-7.712 -17.198,-17.195c-0,-9.486 7.715,-17.205 17.198,-17.205c1.999,0 3.891,0.411 5.676,1.038l5.115,-5.112Z" style="fill:#262626;fill-rule:nonzero;"/><path d="M1466.45,1583.6c-0.15,-0.461 -0.55,-0.791 -1.027,-0.868l-10.932,-1.528l-1.658,-11.055c-0.074,-0.481 -0.401,-0.874 -0.861,-1.028c-0.134,-0.047 -0.267,-0.067 -0.401,-0.067c-0.337,0 -0.667,0.137 -0.904,0.377l-11.786,11.779c-0.283,0.284 -0.417,0.695 -0.357,1.088l1.145,7.839l-25.073,25.079c-1.051,1.051 -1.345,2.526 -0.998,3.878l-6.48,6.476c-0.797,0.798 -0.797,2.086 0,2.88c0.401,0.401 0.921,0.601 1.442,0.601c0.52,-0 1.041,-0.2 1.441,-0.601l6.474,-6.48c0.36,0.093 0.727,0.143 1.091,0.143c1.014,0 2.019,-0.36 2.789,-1.141l25.077,-25.069l7.835,1.144c0.06,0.01 0.126,0.013 0.183,0.013c0.344,0 0.664,-0.13 0.904,-0.37l11.783,-11.786c0.347,-0.343 0.467,-0.844 0.313,-1.304" style="fill:#262626;fill-rule:nonzero;"/></g><path d="M1829.1,1111.42l171.287,413.514" style="fill:none;fill-rule:nonzero;stroke:#595959;stroke-width:3.16px;stroke-linejoin:miter;stroke-miterlimit:10;"/><path d="M1829.1,1111.42l413.514,171.286" style="fill:none;fill-rule:nonzero;stroke:#595959;stroke-width:3.16px;stroke-linejoin:miter;stroke-miterlimit:10;"/><path d="M1829.1,1111.42l413.514,-171.283" style="fill:none;fill-rule:nonzero;stroke:#595959;stroke-width:3.16px;stroke-linejoin:miter;stroke-miterlimit:10;"/><path d="M1829.1,1111.42l171.287,-413.514" style="fill:none;fill-rule:nonzero;stroke:#595959;stroke-width:3.16px;stroke-linejoin:miter;stroke-miterlimit:10;"/><path d="M1829.1,1111.42l-171.283,-413.514" style="fill:none;fill-rule:nonzero;stroke:#595959;stroke-width:3.16px;stroke-linejoin:miter;stroke-miterlimit:10;"/><path d="M1829.1,1111.42l-413.514,-171.283" style="fill:none;fill-rule:nonzero;stroke:#595959;stroke-width:3.16px;stroke-linejoin:miter;stroke-miterlimit:10;"/><path d="M1829.1,1111.42l-413.514,171.286" style="fill:none;fill-rule:nonzero;stroke:#595959;stroke-width:3.16px;stroke-linejoin:miter;stroke-miterlimit:10;"/><path d="M1829.1,1111.42l-171.283,413.514" style="fill:none;fill-rule:nonzero;stroke:#595959;stroke-width:3.16px;stroke-linejoin:miter;stroke-miterlimit:10;"/><path d="M2089.07,1111.42c-0,143.581 -116.392,259.973 -259.973,259.973c-143.578,-0 -259.97,-116.392 -259.97,-259.973c0,-143.578 116.392,-259.973 259.97,-259.973c143.581,-0 259.973,116.395 259.973,259.973" style="fill:#f2f2f2;fill-rule:nonzero;stroke:#595959;stroke-width:4.17px;stroke-miterlimit:2;"/><path d="M2061.09,1111.42c0,128.128 -103.865,231.993 -231.993,231.993c-128.125,0 -231.994,-103.865 -231.994,-231.993c0,-128.125 103.869,-231.994 231.994,-231.994c128.128,0 231.993,103.869 231.993,231.994" style="fill:#fff;fill-rule:nonzero;stroke:#595959;stroke-width:4.17px;stroke-miterlimit:2;"/><path d="M2044.51,697.903c0,24.369 -19.757,44.127 -44.126,44.127c-24.369,-0 -44.127,-19.758 -44.127,-44.127c0,-24.372 19.758,-44.126 44.127,-44.126c24.369,-0 44.126,19.754 44.126,44.126" style="fill:#f2f2f2;fill-rule:nonzero;stroke:#595959;stroke-width:4.17px;stroke-miterlimit:2;"/><path d="M1689.02,666.7c17.231,17.235 17.231,45.174 -0,62.406c-17.235,17.231 -45.174,17.231 -62.406,-0c-17.231,-17.232 -17.231,-45.171 0,-62.406c17.232,-17.231 45.171,-17.231 62.406,0" style="fill:#f2f2f2;fill-rule:nonzero;stroke:#595959;stroke-width:4.17px;stroke-miterlimit:2;"/><path d="M1415.58,896.008c24.369,0 44.127,19.754 44.127,44.127c-0,24.369 -19.758,44.126 -44.127,44.126c-24.372,-0 -44.126,-19.757 -44.126,-44.126c-0,-24.373 19.754,-44.127 44.126,-44.127" style="fill:#f2f2f2;fill-rule:nonzero;stroke:#595959;stroke-width:4.17px;stroke-miterlimit:2;"/><path d="M1384.38,1251.5c17.234,-17.231 45.174,-17.231 62.405,0c17.232,17.235 17.232,45.174 0,62.406c-17.231,17.231 -45.171,17.231 -62.405,-0c-17.232,-17.232 -17.232,-45.171 -0,-62.406" style="fill:#f2f2f2;fill-rule:nonzero;stroke:#595959;stroke-width:4.17px;stroke-miterlimit:2;"/><path d="M1620.14,1493.73c17.235,-17.231 45.175,-17.231 62.406,0c17.231,17.235 17.231,45.174 -0,62.406c-17.231,17.231 -45.171,17.231 -62.406,-0c-17.231,-17.232 -17.231,-45.171 0,-62.406" style="fill:#f2f2f2;fill-rule:nonzero;stroke:#595959;stroke-width:4.17px;stroke-miterlimit:2;"/><path d="M1969.17,1556.13c-17.231,-17.231 -17.231,-45.17 0,-62.402c17.235,-17.234 45.174,-17.234 62.406,0c17.231,17.232 17.231,45.171 -0,62.402c-17.232,17.235 -45.171,17.235 -62.406,0" style="fill:#f2f2f2;fill-rule:nonzero;stroke:#595959;stroke-width:4.17px;stroke-miterlimit:2;"/><path d="M2242.61,1326.83c-24.372,0 -44.129,-19.757 -44.129,-44.126c-0,-24.369 19.757,-44.127 44.129,-44.127c24.373,0 44.127,19.758 44.127,44.127c-0,24.369 -19.754,44.126 -44.127,44.126" style="fill:#f2f2f2;fill-rule:nonzero;stroke:#595959;stroke-width:4.17px;stroke-miterlimit:2;"/><path d="M2273.81,971.336c-17.232,17.232 -45.171,17.232 -62.402,0c-17.235,-17.234 -17.235,-45.17 -0,-62.405c17.231,-17.232 45.17,-17.232 62.402,-0c17.231,17.235 17.231,45.171 -0,62.405" style="fill:#f2f2f2;fill-rule:nonzero;stroke:#595959;stroke-width:4.17px;stroke-miterlimit:2;"/><g><text x="1981.32px" y="726.658px" style="font-family:'Martel-Heavy', 'Martel';font-weight:900;font-size:81.776px;fill:#262626;">1</text><text x="1631.65px" y="729.604px" style="font-family:'Martel-Heavy', 'Martel';font-weight:900;font-size:81.776px;fill:#262626;">8</text><text x="1389.06px" y="961.561px" style="font-family:'Martel-Heavy', 'Martel';font-weight:900;font-size:81.776px;fill:#262626;">7</text><text x="1385.16px" y="1314.03px" style="font-family:'Martel-Heavy', 'Martel';font-weight:900;font-size:81.776px;fill:#262626;">6</text><text x="1629.26px" y="1543.76px" style="font-family:'Martel-Heavy', 'Martel';font-weight:900;font-size:81.776px;fill:#262626;">5</text><text x="1971.7px" y="1541.82px" style="font-family:'Martel-Heavy', 'Martel';font-weight:900;font-size:81.776px;fill:#262626;">4</text><text x="2222.05px" y="1303.93px" style="font-family:'Martel-Heavy', 'Martel';font-weight:900;font-size:81.776px;fill:#262626;">3</text><text x="2217.82px" y="959.195px" style="font-family:'Martel-Heavy', 'Martel';font-weight:900;font-size:81.776px;fill:#262626;">2</text></g><path d="M2314.65,602.043c-0,-39.758 -32.278,-72.036 -72.036,-72.036c-39.757,-0 -72.036,32.278 -72.036,72.036c0,39.757 32.279,72.035 72.036,72.035c39.758,0 72.036,-32.278 72.036,-72.035Z" style="fill:none;stroke:#595959;stroke-width:6.49px;stroke-linejoin:miter;stroke-miterlimit:10;"/><path d="M2314.65,1614.25c-0,-39.759 -32.278,-72.037 -72.036,-72.037c-39.757,-0 -72.036,32.278 -72.036,72.037c0,39.758 32.279,72.037 72.036,72.037c39.758,0 72.036,-32.279 72.036,-72.037Z" style="fill:none;stroke:#595959;stroke-width:6.49px;stroke-linejoin:miter;stroke-miterlimit:10;"/><path d="M2553.82,1282.7c0,-39.758 -32.278,-72.036 -72.035,-72.036c-39.758,0 -72.036,32.278 -72.036,72.036c-0,39.758 32.278,72.036 72.036,72.036c39.757,-0 72.035,-32.278 72.035,-72.036Z" style="fill:none;stroke:#595959;stroke-width:6.49px;stroke-linejoin:miter;stroke-miterlimit:10;"/><path d="M2553.82,851.445c0,-39.758 -32.278,-72.036 -72.035,-72.036c-39.758,0 -72.036,32.278 -72.036,72.036c-0,39.757 32.278,72.035 72.036,72.035c39.757,0 72.035,-32.278 72.035,-72.035Z" style="fill:none;stroke:#595959;stroke-width:6.49px;stroke-linejoin:miter;stroke-miterlimit:10;"/><path d="M1340.95,1622.05c0,39.757 32.278,72.035 72.036,72.035c39.757,0 72.036,-32.278 72.036,-72.035c-0,-39.758 -32.279,-72.036 -72.036,-72.036c-39.758,0 -72.036,32.278 -72.036,72.036Z" style="fill:none;stroke:#595959;stroke-width:6.49px;stroke-linejoin:miter;stroke-miterlimit:10;"/><path d="M1340.95,609.835c0,39.758 32.278,72.036 72.036,72.036c39.757,0 72.036,-32.278 72.036,-72.036c-0,-39.757 -32.279,-72.035 -72.036,-72.035c-39.758,-0 -72.036,32.278 -72.036,72.035Z" style="fill:none;stroke:#595959;stroke-width:6.49px;stroke-linejoin:miter;stroke-miterlimit:10;"/><path d="M1101.77,941.388c-0,39.758 32.278,72.036 72.035,72.036c39.758,-0 72.036,-32.278 72.036,-72.036c0,-39.758 -32.278,-72.036 -72.036,-72.036c-39.757,0 -72.035,32.278 -72.035,72.036Z" style="fill:none;stroke:#595959;stroke-width:6.49px;stroke-linejoin:miter;stroke-miterlimit:10;"/><path d="M1101.77,1372.64c-0,39.758 32.278,72.036 72.035,72.036c39.758,0 72.036,-32.278 72.036,-72.036c0,-39.757 -32.278,-72.035 -72.036,-72.035c-39.757,-0 -72.035,32.278 -72.035,72.035Z" style="fill:none;stroke:#595959;stroke-width:6.49px;stroke-linejoin:miter;stroke-miterlimit:10;"/><path d="M2249.69,1620.89c-9.42,9.697 -24.993,9.928 -34.69,0.501c-9.7,-9.433 -9.923,-24.99 -0.503,-34.703c9.419,-9.697 24.989,-9.927 34.693,-0.501c9.697,9.437 9.92,24.993 0.5,34.703m32.061,21.47l-18.917,-18.393c-1.004,-0.974 -2.232,-1.565 -3.51,-1.822c8.725,-12.947 7.247,-30.692 -4.322,-41.927c-13.003,-12.63 -33.862,-12.326 -46.488,0.674c-12.617,13 -12.313,33.839 0.67,46.469c11.586,11.238 29.365,12.206 42.041,3.11c0.29,1.271 0.931,2.479 1.936,3.457l18.916,18.392c2.766,2.673 7.158,2.606 9.814,-0.143c2.689,-2.75 2.629,-7.148 -0.14,-9.817" style="fill:#262626;fill-rule:nonzero;"/><g><path d="M2464.37,821.234c6.16,-0 11.175,5.015 11.175,11.175c0,6.156 -5.015,11.172 -11.175,11.172c-6.16,-0 -11.172,-5.016 -11.172,-11.172c0,-6.16 5.012,-11.175 11.172,-11.175m-24.486,18.282c0.558,1.902 1.328,3.734 2.299,5.456l-2.769,3.501c-0.911,1.141 -0.811,2.772 0.21,3.804l4.775,4.775c1.031,1.027 2.663,1.121 3.804,0.213l3.477,-2.746c1.789,1.028 3.691,1.828 5.669,2.396l0.524,4.474c0.17,1.445 1.395,2.533 2.84,2.533l6.764,0c1.445,0 2.666,-1.088 2.833,-2.533l0.504,-4.314c2.125,-0.554 4.164,-1.382 6.079,-2.456l3.36,2.659c1.145,0.908 2.773,0.801 3.801,-0.213l4.778,-4.778c1.032,-1.032 1.125,-2.663 0.217,-3.804l-2.616,-3.317c1.088,-1.879 1.936,-3.884 2.5,-5.977l4.034,-0.463c1.448,-0.171 2.536,-1.395 2.536,-2.843l-0,-6.757c-0,-1.452 -1.088,-2.673 -2.536,-2.84l-3.974,-0.464c-0.541,-2.075 -1.358,-4.058 -2.403,-5.913l2.449,-3.09c0.901,-1.144 0.805,-2.773 -0.217,-3.804l-4.768,-4.765c-1.028,-1.031 -2.656,-1.121 -3.801,-0.217l-3.003,2.376c-1.942,-1.141 -4.027,-2.012 -6.213,-2.599l-0.45,-3.884c-0.171,-1.452 -1.395,-2.536 -2.84,-2.536l-6.764,-0c-1.448,-0 -2.666,1.084 -2.836,2.536l-0.454,3.884c-2.242,0.597 -4.381,1.505 -6.373,2.693l-3.117,-2.47c-1.141,-0.904 -2.773,-0.804 -3.804,0.217l-4.775,4.779c-1.028,1.027 -1.121,2.659 -0.21,3.804l2.603,3.29c-1.048,1.878 -1.839,3.884 -2.356,5.969l-4.165,0.474c-1.451,0.17 -2.539,1.392 -2.539,2.84l0,6.76c0,1.448 1.088,2.67 2.539,2.84l4.388,0.51Z" style="fill:#262626;fill-rule:nonzero;"/><path d="M2513.64,868.077c-5.025,0.43 -9.466,-3.317 -9.88,-8.342c-0.431,-5.026 3.313,-9.464 8.342,-9.881c5.025,-0.43 9.46,3.314 9.884,8.342c0.427,5.022 -3.317,9.464 -8.346,9.881m17.535,-26.895l-3.563,-3.013c-1.102,-0.928 -2.72,-0.885 -3.761,0.1l-1.965,1.845c-1.666,-0.804 -3.437,-1.368 -5.256,-1.698l-0.557,-2.717c-0.281,-1.401 -1.582,-2.375 -3.007,-2.262l-4.655,0.397c-1.424,0.124 -2.546,1.292 -2.592,2.726l-0.09,2.763c-1.789,0.648 -3.474,1.529 -5.016,2.64l-2.352,-1.562c-1.201,-0.794 -2.796,-0.567 -3.724,0.531l-3.013,3.587c-0.931,1.098 -0.885,2.719 0.103,3.76l2.059,2.196c-0.711,1.608 -1.221,3.293 -1.518,5.025l-2.943,0.601c-1.402,0.284 -2.376,1.585 -2.266,3.01l0.394,4.655c0.126,1.424 1.294,2.546 2.733,2.589l3.18,0.103c0.58,1.519 1.334,2.954 2.252,4.302l-1.775,2.682c-0.798,1.202 -0.568,2.797 0.53,3.728l3.567,3.01c1.098,0.927 2.713,0.884 3.761,-0.104l2.329,-2.186c1.525,0.715 3.137,1.248 4.792,1.565l0.64,3.194c0.284,1.401 1.589,2.376 3.014,2.262l4.651,-0.397c1.428,-0.123 2.55,-1.288 2.593,-2.729l0.103,-3.124c1.695,-0.6 3.304,-1.415 4.789,-2.422l2.569,1.698c1.198,0.791 2.796,0.567 3.724,-0.53l3.01,-3.567c0.927,-1.098 0.884,-2.717 -0.1,-3.758l-2.072,-2.199c0.757,-1.605 1.308,-3.303 1.625,-5.048l2.836,-0.574c1.405,-0.284 2.376,-1.589 2.259,-3.013l-0.394,-4.652c-0.123,-1.428 -1.288,-2.549 -2.726,-2.593l-2.843,-0.09c-0.584,-1.655 -1.381,-3.217 -2.366,-4.665l1.552,-2.332c0.814,-1.201 0.59,-2.806 -0.511,-3.734" style="fill:#262626;fill-rule:nonzero;"/><path d="M2474.64,877.361c4.111,0.046 7.411,3.426 7.358,7.537c-0.047,4.111 -3.427,7.405 -7.542,7.358c-4.104,-0.043 -7.397,-3.427 -7.354,-7.538c0.047,-4.107 3.434,-7.404 7.538,-7.357m-18.483,3.236c-1.431,0.147 -2.526,1.348 -2.539,2.787l-0.034,2.863c-0.023,1.438 1.045,2.659 2.47,2.839l2.105,0.274c0.351,1.278 0.844,2.499 1.495,3.657l-1.358,1.675c-0.904,1.118 -0.837,2.726 0.167,3.757l2.009,2.049c1.007,1.031 2.612,1.145 3.757,0.26l1.688,-1.301c1.185,0.704 2.44,1.258 3.754,1.642l0.227,2.172c0.147,1.425 1.345,2.526 2.787,2.536l2.859,0.033c1.438,0.024 2.663,-1.041 2.843,-2.469l0.264,-2.059c1.425,-0.35 2.786,-0.881 4.074,-1.581l1.585,1.278c1.118,0.904 2.73,0.837 3.754,-0.17l2.055,-2.003c1.028,-1.011 1.138,-2.616 0.257,-3.76l-1.208,-1.572c0.745,-1.248 1.325,-2.573 1.719,-3.964l1.879,-0.19c1.424,-0.15 2.522,-1.348 2.532,-2.786l0.034,-2.867c0.026,-1.435 -1.038,-2.656 -2.466,-2.839l-1.836,-0.237c-0.35,-1.385 -0.867,-2.72 -1.548,-3.961l1.141,-1.405c0.908,-1.121 0.841,-2.73 -0.166,-3.757l-2.003,-2.052c-1.011,-1.032 -2.616,-1.145 -3.76,-0.257l-1.372,1.051c-1.284,-0.781 -2.666,-1.382 -4.117,-1.789l-0.184,-1.778c-0.143,-1.425 -1.345,-2.523 -2.783,-2.533l-2.863,-0.037c-1.441,-0.02 -2.663,1.041 -2.839,2.47l-0.234,1.765c-1.488,0.383 -2.926,0.974 -4.261,1.742l-1.418,-1.152c-1.121,-0.907 -2.723,-0.841 -3.758,0.167l-2.058,2.016c-1.035,1.011 -1.148,2.616 -0.264,3.757l1.211,1.565c-0.7,1.245 -1.258,2.569 -1.615,3.961l-1.982,0.203Z" style="fill:#262626;fill-rule:nonzero;"/></g><g><path d="M2464.49,1251.07c6.16,0 11.176,5.016 11.176,11.175c-0,6.157 -5.016,11.172 -11.176,11.172c-6.159,0 -11.171,-5.015 -11.171,-11.172c-0,-6.159 5.012,-11.175 11.171,-11.175m-24.485,18.283c0.557,1.902 1.328,3.734 2.299,5.456l-2.77,3.5c-0.911,1.141 -0.811,2.773 0.211,3.804l4.775,4.775c1.031,1.028 2.662,1.121 3.804,0.214l3.477,-2.747c1.788,1.028 3.69,1.829 5.669,2.396l0.524,4.475c0.17,1.445 1.394,2.533 2.839,2.533l6.764,-0c1.445,-0 2.666,-1.088 2.833,-2.533l0.504,-4.315c2.125,-0.554 4.164,-1.381 6.08,-2.456l3.36,2.66c1.144,0.908 2.773,0.801 3.8,-0.214l4.779,-4.778c1.031,-1.031 1.124,-2.663 0.217,-3.804l-2.616,-3.317c1.087,-1.878 1.935,-3.884 2.499,-5.976l4.034,-0.464c1.448,-0.17 2.536,-1.395 2.536,-2.843l0,-6.757c0,-1.451 -1.088,-2.673 -2.536,-2.84l-3.974,-0.463c-0.541,-2.076 -1.358,-4.058 -2.403,-5.913l2.45,-3.09c0.901,-1.145 0.804,-2.773 -0.217,-3.804l-4.769,-4.765c-1.027,-1.031 -2.656,-1.121 -3.8,-0.217l-3.003,2.376c-1.942,-1.141 -4.028,-2.012 -6.214,-2.6l-0.45,-3.884c-0.17,-1.451 -1.395,-2.536 -2.84,-2.536l-6.763,0c-1.449,0 -2.667,1.085 -2.837,2.536l-0.454,3.884c-2.242,0.598 -4.381,1.505 -6.373,2.693l-3.116,-2.469c-1.142,-0.904 -2.773,-0.804 -3.804,0.217l-4.775,4.778c-1.028,1.028 -1.122,2.66 -0.211,3.804l2.603,3.29c-1.048,1.879 -1.839,3.884 -2.356,5.97l-4.164,0.474c-1.452,0.17 -2.539,1.391 -2.539,2.839l-0,6.761c-0,1.448 1.087,2.669 2.539,2.839l4.388,0.511Z" style="fill:#262626;fill-rule:nonzero;"/><path d="M2513.77,1297.91c-5.026,0.431 -9.467,-3.317 -9.881,-8.342c-0.43,-5.025 3.314,-9.463 8.342,-9.88c5.026,-0.431 9.46,3.313 9.884,8.342c0.427,5.022 -3.317,9.463 -8.345,9.88m17.535,-26.895l-3.564,-3.013c-1.101,-0.927 -2.72,-0.884 -3.761,0.1l-1.965,1.846c-1.665,-0.805 -3.437,-1.369 -5.256,-1.699l-0.557,-2.716c-0.28,-1.402 -1.582,-2.376 -3.006,-2.262l-4.655,0.397c-1.425,0.123 -2.546,1.291 -2.593,2.726l-0.09,2.763c-1.789,0.647 -3.474,1.528 -5.015,2.639l-2.353,-1.561c-1.201,-0.795 -2.796,-0.568 -3.724,0.53l-3.013,3.587c-0.931,1.098 -0.884,2.72 0.104,3.761l2.058,2.195c-0.71,1.609 -1.221,3.294 -1.518,5.026l-2.943,0.6c-1.401,0.284 -2.376,1.585 -2.266,3.01l0.394,4.655c0.127,1.425 1.295,2.546 2.733,2.589l3.18,0.104c0.581,1.518 1.335,2.953 2.252,4.301l-1.775,2.683c-0.797,1.201 -0.567,2.796 0.531,3.727l3.567,3.01c1.098,0.928 2.713,0.884 3.76,-0.103l2.329,-2.186c1.525,0.714 3.137,1.248 4.792,1.565l0.641,3.193c0.283,1.402 1.588,2.376 3.013,2.263l4.652,-0.397c1.428,-0.124 2.549,-1.288 2.592,-2.73l0.104,-3.123c1.695,-0.601 3.303,-1.415 4.788,-2.423l2.569,1.699c1.198,0.79 2.797,0.567 3.724,-0.531l3.01,-3.567c0.928,-1.098 0.884,-2.716 -0.1,-3.757l-2.072,-2.199c0.757,-1.605 1.308,-3.304 1.625,-5.049l2.836,-0.574c1.405,-0.283 2.376,-1.588 2.259,-3.013l-0.393,-4.652c-0.124,-1.428 -1.288,-2.549 -2.727,-2.592l-2.843,-0.09c-0.584,-1.655 -1.381,-3.217 -2.365,-4.665l1.551,-2.333c0.814,-1.201 0.591,-2.806 -0.51,-3.734" style="fill:#262626;fill-rule:nonzero;"/><path d="M2474.77,1307.2c4.111,0.047 7.411,3.427 7.358,7.538c-0.047,4.111 -3.427,7.404 -7.541,7.358c-4.105,-0.044 -7.398,-3.427 -7.355,-7.538c0.047,-4.108 3.434,-7.405 7.538,-7.358m-18.482,3.237c-1.432,0.147 -2.526,1.348 -2.54,2.786l-0.033,2.863c-0.024,1.438 1.044,2.659 2.469,2.84l2.106,0.273c0.35,1.278 0.844,2.5 1.495,3.657l-1.359,1.676c-0.904,1.117 -0.837,2.726 0.167,3.757l2.009,2.049c1.008,1.031 2.613,1.144 3.757,0.26l1.689,-1.301c1.184,0.704 2.439,1.258 3.754,1.641l0.227,2.173c0.146,1.424 1.344,2.526 2.786,2.536l2.86,0.033c1.438,0.023 2.662,-1.041 2.843,-2.469l0.263,-2.059c1.425,-0.351 2.786,-0.881 4.074,-1.582l1.585,1.278c1.118,0.904 2.73,0.838 3.754,-0.17l2.056,-2.002c1.028,-1.011 1.138,-2.616 0.257,-3.761l-1.208,-1.571c0.744,-1.248 1.325,-2.573 1.718,-3.965l1.879,-0.19c1.425,-0.15 2.523,-1.348 2.533,-2.786l0.033,-2.866c0.027,-1.435 -1.038,-2.656 -2.466,-2.84l-1.835,-0.237c-0.351,-1.385 -0.868,-2.719 -1.548,-3.961l1.141,-1.405c0.907,-1.121 0.841,-2.729 -0.167,-3.757l-2.002,-2.052c-1.011,-1.031 -2.616,-1.144 -3.761,-0.257l-1.371,1.051c-1.285,-0.781 -2.666,-1.381 -4.118,-1.788l-0.183,-1.779c-0.144,-1.425 -1.345,-2.523 -2.783,-2.533l-2.863,-0.036c-1.442,-0.02 -2.663,1.041 -2.84,2.469l-0.234,1.765c-1.488,0.384 -2.926,0.975 -4.261,1.742l-1.418,-1.151c-1.121,-0.908 -2.723,-0.841 -3.757,0.167l-2.059,2.015c-1.034,1.011 -1.148,2.616 -0.264,3.757l1.212,1.565c-0.701,1.245 -1.258,2.57 -1.615,3.961l-1.982,0.204Z" style="fill:#262626;fill-rule:nonzero;"/></g><g transform="matrix(4.16667,0,0,4.16667,157.601,215.391)"><text x="528.907px" y="88.135px" style="font-family:'Martel-Heavy', 'Martel';font-weight:900;font-size:12px;fill:#595959;">Domain</text><text x="528.907px" y="105.431px" style="font-family:'Martel-Heavy', 'Martel';font-weight:900;font-size:12px;fill:#595959;">Analysis</text></g><text x="2580.34px" y="830.338px" style="font-family:'Martel-Heavy', 'Martel';font-weight:900;font-size:50px;fill:#595959;">Data Acquisition</text><text x="2580.18px" y="1265.03px" style="font-family:'Martel-Heavy', 'Martel';font-weight:900;font-size:50px;fill:#595959;">Data Preparation</text><text x="2342.14px" y="1594.36px" style="font-family:'Martel-Heavy', 'Martel';font-weight:900;font-size:50px;fill:#595959;">Explorative Analysis</text><text x="903.014px" y="591.363px" style="font-family:'Martel-Heavy', 'Martel';font-weight:900;font-size:50px;fill:#595959;">Production</text><text x="721.575px" y="921.529px" style="font-family:'Martel-Heavy', 'Martel';font-weight:900;font-size:50px;fill:#595959;">Deployment</text><text x="684.589px" y="1348.12px" style="font-family:'Martel-Heavy', 'Martel';font-weight:900;font-size:50px;fill:#595959;">Data Modelling</text><text x="776.227px" y="1604.42px" style="font-family:'Martel-Heavy', 'Martel';font-weight:900;font-size:50px;fill:#595959;">Feature Engineering</text><path d="M2314.65,602.043l409.917,-0" style="fill:none;fill-rule:nonzero;stroke:#595959;stroke-width:6.49px;stroke-linejoin:miter;stroke-miterlimit:10;"/><path d="M2553.47,849.759l380.155,-0" style="fill:none;fill-rule:nonzero;stroke:#595959;stroke-width:6.49px;stroke-linejoin:miter;stroke-miterlimit:10;"/><path d="M2553.47,1284.45l380.155,-0" style="fill:none;fill-rule:nonzero;stroke:#595959;stroke-width:6.49px;stroke-linejoin:miter;stroke-miterlimit:10;"/><path d="M2315.43,1613.78l456.055,-0" style="fill:none;fill-rule:nonzero;stroke:#595959;stroke-width:6.49px;stroke-linejoin:miter;stroke-miterlimit:10;"/><path d="M1340.95,610.782l-438.17,0" style="fill:none;fill-rule:nonzero;stroke:#595959;stroke-width:6.49px;stroke-linejoin:miter;stroke-miterlimit:10;"/><path d="M1102.12,941.051l-380.156,-0" style="fill:none;fill-rule:nonzero;stroke:#595959;stroke-width:6.49px;stroke-linejoin:miter;stroke-miterlimit:10;"/><path d="M1102.12,1372.71l-380.156,-0" style="fill:none;fill-rule:nonzero;stroke:#595959;stroke-width:6.49px;stroke-linejoin:miter;stroke-miterlimit:10;"/><path d="M1340.17,1623.85l-456.055,-0" style="fill:none;fill-rule:nonzero;stroke:#595959;stroke-width:6.49px;stroke-linejoin:miter;stroke-miterlimit:10;"/><path d="M2105.16,373.675c-0,-17.884 14.519,-32.404 32.403,-32.404l356.711,0c17.884,0 32.404,14.52 32.404,32.404l-0,64.807c-0,17.884 -14.52,32.404 -32.404,32.404l-356.711,0c-17.884,0 -32.403,-14.52 -32.403,-32.404l-0,-64.807Z" style="fill:#2680e3;"/><text x="2140.92px" y="423.722px" style="font-family:'Martel-Heavy', 'Martel';font-weight:900;font-size:58.333px;fill:#fff;">Data check</text><text x="2907.06px" y="511.382px" style="font-family:'Martel-Heavy', 'Martel';font-weight:900;font-size:58.333px;fill:#2680e3;">Fairness</text><text x="191.28px" y="1570.86px" style="font-family:'Martel-Heavy', 'Martel';font-weight:900;font-size:58.333px;fill:#2680e3;">Privacy</text><text x="147.585px" y="1466.57px" style="font-family:'Martel-Heavy', 'Martel';font-weight:900;font-size:58.333px;fill:#2680e3;">Security</text><text x="98.134px" y="1374.16px" style="font-family:'Martel-Heavy', 'Martel';font-weight:900;font-size:58.333px;fill:#2680e3;">Fairness</text><text x="568.753px" y="1111.83px" style="font-family:'Martel-Heavy', 'Martel';font-weight:900;font-size:66.667px;fill:#2680e3;">Responsibility ?</text><text x="92.782px" y="1686.4px" style="font-family:'Martel-Heavy', 'Martel';font-weight:900;font-size:58.333px;fill:#2680e3;">Explainability</text><text x="273.779px" y="1233px" style="font-family:'Martel-Heavy', 'Martel';font-weight:900;font-size:58.333px;fill:#fff;">Model check</text><g><path d="M1178.32,1328.93c1.536,2.664 2.588,9.271 3.14,18.019l9.815,-0l0,-9.286c-0.212,-0.098 -0.416,-0.212 -0.613,-0.34c-0.37,-0.235 -0.711,-0.507 -1.006,-0.802l-0.038,-0.038c-0.522,-0.522 -0.938,-1.151 -1.226,-1.847c-0.287,-0.688 -0.446,-1.445 -0.446,-2.24c-0,-0.787 0.159,-1.536 0.446,-2.232c0.295,-0.719 0.734,-1.362 1.264,-1.9c0.537,-0.537 1.18,-0.968 1.899,-1.263c0.689,-0.288 1.446,-0.447 2.233,-0.447c0.787,0 1.536,0.159 2.232,0.447c0.719,0.295 1.362,0.734 1.9,1.263c0.537,0.538 0.968,1.181 1.263,1.892l0.016,0.046c0.272,0.681 0.423,1.422 0.423,2.187c0,0.787 -0.159,1.536 -0.446,2.232c-0.295,0.719 -0.734,1.362 -1.264,1.9l-0.045,0.045c-0.265,0.257 -0.56,0.499 -0.871,0.704c-0.166,0.113 -0.34,0.212 -0.522,0.31l0,11.987c0,0.719 -0.295,1.37 -0.764,1.839c-0.469,0.469 -1.12,0.764 -1.839,0.764l-12.154,0c0.091,2.49 0.152,5.108 0.175,7.81l23.035,0c0.099,-0.197 0.205,-0.386 0.318,-0.567l0.03,-0.038c0.22,-0.341 0.477,-0.651 0.75,-0.924c0.537,-0.537 1.18,-0.968 1.899,-1.263l0.045,-0.015c0.682,-0.273 1.423,-0.432 2.187,-0.432c0.788,0 1.537,0.159 2.233,0.447c0.719,0.295 1.362,0.734 1.899,1.263c0.538,0.538 0.969,1.181 1.264,1.9c0.288,0.696 0.447,1.445 0.447,2.232c-0,0.787 -0.159,1.537 -0.447,2.233c-0.295,0.719 -0.734,1.362 -1.264,1.899c-0.537,0.538 -1.18,0.969 -1.899,1.264l-0.045,0.015c-0.682,0.273 -1.423,0.424 -2.188,0.424c-0.787,-0 -1.543,-0.159 -2.232,-0.447c-0.711,-0.295 -1.355,-0.726 -1.899,-1.263c-0.288,-0.288 -0.545,-0.606 -0.772,-0.961c-0.121,-0.182 -0.227,-0.371 -0.326,-0.568l-23.028,0c-0.023,2.951 -0.083,5.971 -0.182,9.043l28.159,0c0.719,0 1.37,0.295 1.839,0.765c0.47,0.469 0.765,1.12 0.765,1.839l-0,19.32c0.249,0.106 0.484,0.227 0.711,0.363c0.409,0.242 0.78,0.537 1.113,0.87c0.537,0.537 0.968,1.181 1.263,1.9l0.015,0.045c0.273,0.681 0.432,1.423 0.432,2.187c-0,0.787 -0.159,1.536 -0.447,2.232c-0.295,0.719 -0.734,1.363 -1.263,1.9c-0.538,0.537 -1.181,0.969 -1.9,1.264c-0.689,0.287 -1.445,0.446 -2.232,0.446c-0.787,0 -1.537,-0.159 -2.233,-0.446c-0.719,-0.295 -1.362,-0.734 -1.899,-1.264c-0.538,-0.537 -0.969,-1.181 -1.264,-1.9c-0.288,-0.688 -0.447,-1.445 -0.447,-2.232c0,-0.787 0.159,-1.544 0.447,-2.232c0.295,-0.719 0.734,-1.363 1.264,-1.9c0.242,-0.242 0.514,-0.469 0.802,-0.673c0.136,-0.099 0.28,-0.19 0.431,-0.273l0,-16.997l-25.76,0c-0.113,2.452 -0.25,4.912 -0.416,7.364l8.355,-0c0.718,-0 1.369,0.295 1.838,0.764c0.47,0.469 0.765,1.12 0.765,1.839l-0,10.337c0.189,0.099 0.363,0.205 0.545,0.318c0.348,0.227 0.658,0.484 0.938,0.764l0.045,0.046c0.515,0.53 0.939,1.158 1.226,1.854c0.288,0.689 0.447,1.445 0.447,2.232c-0,0.787 -0.159,1.544 -0.447,2.233l-0.022,0.045c-0.295,0.704 -0.727,1.332 -1.249,1.854l-0.038,0.038c-0.53,0.522 -1.158,0.946 -1.846,1.234c-0.689,0.287 -1.453,0.446 -2.24,0.446c-0.787,0 -1.536,-0.159 -2.233,-0.446c-0.719,-0.296 -1.362,-0.735 -1.899,-1.264l-0.046,-0.046c-0.514,-0.529 -0.938,-1.157 -1.226,-1.854c-0.287,-0.696 -0.446,-1.445 -0.446,-2.232c-0,-0.787 0.159,-1.536 0.446,-2.233c0.296,-0.718 0.727,-1.362 1.264,-1.899c0.295,-0.295 0.628,-0.56 0.976,-0.787c0.19,-0.121 0.386,-0.235 0.591,-0.333l-0,-7.696l-6.13,-0c-0.083,1.036 -0.174,2.073 -0.265,3.102c-0.121,1.332 -0.507,3.792 -0.257,5.01c0.666,3.232 -2.248,12.979 -10.814,14.772c-4.223,0.878 -8.589,-0.416 -11.881,-2.989c-2.634,-2.051 -4.609,-4.934 -5.32,-8.196c-1.378,-0.053 -2.778,-0.333 -4.14,-0.787c-3.012,-1.014 -5.91,-2.989 -8.173,-5.607c-2.278,-2.626 -3.927,-5.926 -4.45,-9.596c-0.264,-1.915 -0.227,-3.913 0.197,-5.971c-1.476,-1.339 -2.747,-2.845 -3.753,-4.488c-1.756,-2.807 -2.717,-5.97 -2.679,-9.224c0.038,-3.277 1.082,-6.599 3.345,-9.687c1.316,-1.793 3.049,-3.504 5.244,-5.07c-0.023,-0.598 -0.023,-1.196 -0.008,-1.786c0.174,-4.783 1.938,-8.99 4.511,-12.131c2.663,-3.254 6.228,-5.381 9.89,-5.903l0.016,0c0.128,-0.537 0.28,-1.067 0.476,-1.581c1.181,-3.201 3.61,-5.926 6.584,-7.659c2.997,-1.74 6.592,-2.512 10.095,-1.786c3.368,0.712 6.577,2.725 8.991,6.493Zm-25.859,68.328c1.241,-3.905 4.518,-7.802 10.701,-10.958c1.544,-0.779 3.42,-0.174 4.215,1.362c0.779,1.544 0.174,3.421 -1.362,4.215c-5.729,2.929 -7.886,6.289 -7.886,9.218c0,2.285 1.302,4.419 3.194,5.903c1.922,1.49 4.404,2.27 6.75,1.785c2.921,-0.605 5.736,-3.307 7.197,-9.194l-0,-61.903c-1.461,-5.842 -4.276,-8.529 -7.189,-9.134c-1.922,-0.401 -3.966,0.053 -5.706,1.075c-1.764,1.021 -3.179,2.595 -3.852,4.411c-0.893,2.422 -0.363,5.396 2.664,8.196c1.256,1.173 1.339,3.133 0.166,4.389c-1.173,1.257 -3.133,1.34 -4.389,0.167c-2.354,-2.18 -3.807,-4.495 -4.533,-6.803c-1.854,0.446 -3.686,1.672 -5.169,3.473c-1.733,2.111 -2.921,4.972 -3.042,8.256c-0.03,0.871 0.015,1.794 0.144,2.74l-0.008,-0c0.167,1.226 -0.378,2.497 -1.498,3.186c-2.27,1.392 -3.943,2.928 -5.116,4.525c-1.422,1.937 -2.073,3.973 -2.096,5.933c-0.023,1.99 0.59,3.973 1.688,5.751c0.93,1.506 2.202,2.884 3.753,4.034c1.166,0.802 1.71,2.301 1.234,3.701c-0.613,1.816 -0.75,3.579 -0.515,5.221c0.333,2.361 1.43,4.518 2.929,6.251c1.506,1.741 3.413,3.042 5.365,3.708c0.787,0.303 1.582,0.454 2.361,0.492Zm0.712,-43.975c1.225,-1.203 3.193,-1.188 4.404,0.038c1.203,1.226 1.188,3.193 -0.038,4.404c-2.671,2.633 -4.064,6.024 -4.215,9.49c-0.144,3.572 1.014,7.249 3.451,10.269c1.082,1.339 0.862,3.299 -0.477,4.382c-1.34,1.082 -3.3,0.862 -4.382,-0.477c-3.413,-4.23 -5.032,-9.376 -4.828,-14.424c0.22,-5.01 2.233,-9.898 6.085,-13.682Z" style="fill:#262626;fill-rule:nonzero;"/><path d="M1196,926.662l-0.972,0.504l-1.017,0.568l-0.055,0c-0.963,0.596 -1.971,1.228 -2.887,1.925c-0.917,0.696 -1.998,1.485 -3.007,2.3c-0.375,0.276 -0.904,0.225 -1.219,-0.119l-4.353,-4.977c-0.285,-0.36 -0.258,-0.882 0.064,-1.21c0.76,-0.715 1.567,-1.393 2.401,-2.053c0.834,-0.66 1.705,-1.265 2.585,-1.833c0.696,-0.449 1.421,-0.916 2.181,-1.311c0.761,-0.394 1.503,-0.797 2.246,-1.145c0.312,-0.129 0.614,-0.303 0.916,-0.44c-1.211,-1.986 -2.681,-3.801 -4.372,-5.399c-1.919,-1.813 -4.104,-3.321 -6.48,-4.473c-2.243,-1.075 -4.624,-1.834 -7.076,-2.254c-2.484,-0.429 -5.015,-0.524 -7.525,-0.285c-2.494,0.236 -4.944,0.819 -7.277,1.733c-2.301,0.881 -4.463,2.091 -6.416,3.593c-2.407,1.876 -4.437,4.189 -5.985,6.819c-1.623,2.781 -2.749,5.824 -3.327,8.992l-0.431,2.263c-0.079,0.35 -0.355,0.623 -0.706,0.697l-2.255,0.44c-1.09,0.192 -2.108,0.422 -3.07,0.678c-0.91,0.244 -1.806,0.534 -2.686,0.871l-0.046,-0c-0.765,0.298 -1.511,0.641 -2.236,1.027c-0.697,0.371 -1.368,0.791 -2.007,1.255c-0.949,0.681 -1.808,1.479 -2.558,2.374c-1.078,1.293 -1.905,2.776 -2.438,4.372c-0.564,1.652 -0.84,3.388 -0.815,5.133c0.04,3.555 1.176,7.013 3.253,9.899l0,0.046c0.385,0.529 0.801,1.034 1.247,1.512c0.441,0.479 0.912,0.929 1.412,1.347c0.526,0.428 1.08,0.819 1.658,1.174c0.586,0.353 1.199,0.66 1.834,0.916c0.357,0.147 0.715,0.284 1.09,0.403c0.073,0.693 0.22,1.375 0.44,2.035c0.064,0.193 0.129,0.376 0.202,0.559c-0.235,0.397 -0.446,0.807 -0.632,1.229c-0.629,1.216 -1.003,2.548 -1.1,3.913l-0,0.688c-1.053,-0.292 -2.085,-0.654 -3.089,-1.082c-1.041,-0.433 -2.049,-0.942 -3.016,-1.521c-0.942,-0.559 -1.837,-1.193 -2.676,-1.898c-0.756,-0.633 -1.473,-1.312 -2.145,-2.034c-0.688,-0.743 -1.331,-1.526 -1.925,-2.347c-1.542,-2.133 -2.745,-4.492 -3.565,-6.993c-0.846,-2.522 -1.297,-5.159 -1.338,-7.819c-0.028,-2.719 0.413,-5.422 1.301,-7.992c0.871,-2.491 2.185,-4.804 3.877,-6.828c0.595,-0.71 1.232,-1.383 1.907,-2.017c0.689,-0.634 1.414,-1.227 2.172,-1.778c0.922,-0.682 1.893,-1.295 2.906,-1.833c1.06,-0.57 2.156,-1.073 3.281,-1.503c0.788,-0.312 1.613,-0.596 2.465,-0.853c0.688,-0.211 1.394,-0.403 2.099,-0.577c0.924,-3.52 2.389,-6.876 4.345,-9.945c2.01,-3.142 4.546,-5.914 7.497,-8.194c2.561,-1.984 5.395,-3.586 8.415,-4.757c3.065,-1.2 6.282,-1.972 9.559,-2.291c3.253,-0.309 6.533,-0.183 9.753,0.375c3.203,0.558 6.315,1.555 9.248,2.961c3.387,1.62 6.484,3.788 9.165,6.416c2.547,2.517 4.686,5.414 6.343,8.588c0.55,-0.073 1.082,-0.128 1.613,-0.165c0.724,-0.055 1.467,-0.082 2.227,-0.073c3.24,-0.001 6.446,0.657 9.423,1.934l0.055,-0c2.907,1.283 5.516,3.156 7.662,5.499c0.532,0.57 1.03,1.17 1.494,1.797c0.477,0.605 0.917,1.246 1.375,1.915l0,0.055c1.493,2.365 2.609,4.946 3.309,7.654c0.765,2.919 1.138,5.927 1.109,8.945c-0.023,2.984 -0.467,5.949 -1.32,8.808c-0.77,2.604 -1.986,5.054 -3.593,7.241c-1.058,1.402 -2.265,2.684 -3.602,3.822c-1.299,1.108 -2.698,2.093 -4.179,2.943c-0.02,-0.425 -0.072,-0.848 -0.156,-1.265c-0.239,-1.194 -0.706,-2.33 -1.375,-3.346l-1.219,-1.943c-0.241,-0.366 -0.511,-0.712 -0.807,-1.036c0.805,-0.494 1.574,-1.046 2.301,-1.649c2.297,-1.917 3.941,-4.503 4.702,-7.397c0.592,-2.025 0.901,-4.123 0.916,-6.233c0.031,-2.218 -0.231,-4.431 -0.779,-6.581c-0.477,-1.927 -1.26,-3.765 -2.319,-5.444c-0.302,-0.468 -0.614,-0.917 -0.916,-1.311c-0.303,-0.394 -0.651,-0.806 -0.999,-1.173c-1.391,-1.518 -3.083,-2.729 -4.968,-3.556c-1.924,-0.82 -3.994,-1.244 -6.086,-1.247c-1.495,-0.005 -2.986,0.158 -4.445,0.486c-1.574,0.35 -3.109,0.853 -4.583,1.503l-0,-0.027Zm3.666,33.234c-0.313,-0.09 -0.651,-0.032 -0.917,0.156c-0.263,0.167 -0.446,0.436 -0.504,0.743l-0.357,1.723c-0.405,0.011 -0.809,0.044 -1.21,0.101c-0.403,0.064 -0.797,0.146 -1.192,0.247l-0.962,-1.622c-0.165,-0.262 -0.43,-0.444 -0.733,-0.504c-0.316,-0.081 -0.652,-0.017 -0.917,0.174l-2.016,1.31c-0.253,0.166 -0.429,0.427 -0.486,0.725c-0.085,0.313 -0.028,0.648 0.156,0.916l0.962,1.467c-0.526,0.585 -0.975,1.235 -1.338,1.934l-1.906,-0.385c-0.295,-0.077 -0.609,-0.024 -0.862,0.146c-0.256,0.169 -0.434,0.433 -0.495,0.733l-0.486,2.338c-0.076,0.314 -0.02,0.645 0.156,0.916c0.167,0.262 0.437,0.442 0.743,0.495l1.732,0.367c0.003,0.402 0.034,0.803 0.092,1.201c0.061,0.402 0.147,0.799 0.256,1.191l-1.604,1.054c-0.263,0.159 -0.446,0.422 -0.504,0.724c-0.08,0.315 -0.019,0.649 0.165,0.917l1.32,2.016c0.164,0.257 0.425,0.436 0.724,0.495c0.315,0.085 0.651,0.024 0.917,-0.165l1.475,-0.962c0.284,0.287 0.591,0.55 0.917,0.788c0.328,0.234 0.667,0.451 1.017,0.651l-0.394,1.833c-0.077,0.295 -0.023,0.609 0.147,0.862c0.169,0.261 0.437,0.443 0.742,0.504l2.347,0.504c0.299,0.03 0.599,-0.059 0.834,-0.248c0.258,-0.162 0.442,-0.418 0.513,-0.715l0.348,-1.75c0.406,-0.002 0.81,-0.036 1.21,-0.101c0.388,-0.039 0.774,-0.1 1.155,-0.183l1.054,1.604c0.162,0.263 0.429,0.446 0.733,0.504c0.315,0.079 0.649,0.019 0.917,-0.165l2.007,-1.32c0.256,-0.165 0.435,-0.426 0.495,-0.724c0.085,-0.314 0.028,-0.649 -0.156,-0.917l-0.916,-1.466c0.279,-0.288 0.539,-0.595 0.779,-0.917c0.236,-0.33 0.453,-0.672 0.65,-1.026l1.889,0.403c0.296,0.073 0.609,0.016 0.861,-0.156c0.265,-0.16 0.446,-0.428 0.495,-0.733l0.504,-2.347c0.068,-0.316 0.005,-0.647 -0.174,-0.916c-0.166,-0.257 -0.426,-0.438 -0.724,-0.504l-1.751,-0.358c-0.002,-0.402 -0.035,-0.803 -0.1,-1.2c-0.056,-0.403 -0.138,-0.801 -0.248,-1.192l1.604,-1.045c0.262,-0.164 0.445,-0.43 0.504,-0.733c0.08,-0.315 0.02,-0.649 -0.165,-0.917l-1.402,-1.943c-0.211,-0.325 -0.573,-0.521 -0.961,-0.521c-0.225,-0 -0.446,0.066 -0.634,0.191l-1.476,0.917c-0.287,-0.278 -0.593,-0.536 -0.916,-0.77c-0.324,-0.237 -0.664,-0.451 -1.018,-0.642l0.385,-1.906c0.077,-0.295 0.024,-0.609 -0.146,-0.862c-0.167,-0.261 -0.437,-0.441 -0.743,-0.495l-2.337,-0.485l-0.055,0.045Zm-1.741,7.764c0.537,-0.03 1.076,0.045 1.585,0.22c0.484,0.18 0.932,0.447 1.32,0.788c0.382,0.346 0.694,0.763 0.917,1.228c0.239,0.483 0.376,1.011 0.403,1.549c0.031,0.536 -0.047,1.072 -0.229,1.577c-0.171,0.487 -0.432,0.938 -0.77,1.329c-0.35,0.381 -0.77,0.692 -1.237,0.916c-0.976,0.478 -2.104,0.54 -3.126,0.174c-0.987,-0.345 -1.796,-1.072 -2.246,-2.016c-0.713,-1.465 -0.473,-3.224 0.605,-4.445c0.35,-0.382 0.77,-0.693 1.238,-0.917c0.481,-0.237 1.004,-0.374 1.54,-0.403Zm-28.689,-17.983c-0.265,-0.141 -0.56,-0.214 -0.859,-0.214c-0.704,-0 -1.348,0.405 -1.652,1.039l-1.32,2.538c-0.602,-0.158 -1.215,-0.275 -1.833,-0.348c-0.652,-0.073 -1.306,-0.11 -1.962,-0.11l-0.962,-2.933c-0.237,-0.765 -0.95,-1.291 -1.751,-1.291c-0.203,0 -0.404,0.034 -0.596,0.1l-3.666,1.209c-0.465,0.151 -0.851,0.481 -1.072,0.917c-0.237,0.436 -0.277,0.953 -0.11,1.421l0.916,2.694c-1.105,0.677 -2.115,1.497 -3.006,2.438l-2.906,-1.393c-0.422,-0.237 -0.927,-0.281 -1.384,-0.119c-0.468,0.148 -0.858,0.479 -1.081,0.917l-1.732,3.428c-0.141,0.264 -0.214,0.559 -0.214,0.859c-0,0.703 0.405,1.347 1.038,1.652l2.539,1.292c-0.163,0.629 -0.28,1.27 -0.348,1.916c-0.073,0.651 -0.101,1.302 -0.11,1.952l-2.933,0.917c-0.763,0.239 -1.285,0.95 -1.285,1.749c-0,0.207 0.034,0.412 0.103,0.606l1.21,3.667c0.146,0.465 0.478,0.849 0.916,1.063c0.441,0.232 0.957,0.275 1.43,0.119l2.686,-0.916c0.339,0.564 0.719,1.103 1.136,1.613c0.411,0.502 0.852,0.98 1.32,1.43l-1.412,2.749c-0.237,0.425 -0.284,0.932 -0.128,1.393c0.146,0.473 0.477,0.866 0.917,1.091l3.455,1.952c0.443,0.218 0.956,0.248 1.421,0.083c0.472,-0.146 0.865,-0.477 1.091,-0.917l1.274,-2.575c0.629,0.163 1.269,0.279 1.915,0.348c0.648,0.073 1.3,0.11 1.952,0.11l0.972,2.933c0.237,0.766 0.95,1.291 1.751,1.291c0.203,-0 0.404,-0.034 0.595,-0.099l3.667,-1.21c0.465,-0.15 0.851,-0.481 1.072,-0.917c0.237,-0.439 0.277,-0.959 0.11,-1.43l-0.917,-2.694c0.564,-0.337 1.1,-0.717 1.604,-1.137c0.504,-0.41 0.984,-0.848 1.439,-1.311l2.75,1.403c0.429,0.246 0.945,0.293 1.412,0.128c0.472,-0.137 0.863,-0.471 1.072,-0.916l1.769,-3.438c0.21,-0.445 0.239,-0.954 0.083,-1.42c-0.152,-0.469 -0.481,-0.861 -0.917,-1.091l-2.576,-1.283c0.164,-0.629 0.28,-1.27 0.349,-1.916c0.07,-0.648 0.104,-1.3 0.101,-1.952l2.942,-0.917c0.762,-0.238 1.285,-0.95 1.285,-1.749c0,-0.207 -0.035,-0.411 -0.103,-0.606l-1.21,-3.667c-0.239,-0.761 -0.95,-1.282 -1.748,-1.282c-0.204,-0 -0.406,0.034 -0.598,0.1l-2.686,0.917c-0.342,-0.557 -0.722,-1.09 -1.136,-1.595c-0.367,-0.564 -0.774,-1.1 -1.219,-1.604l1.393,-2.75c0.256,-0.428 0.316,-0.945 0.165,-1.421c-0.148,-0.468 -0.479,-0.858 -0.917,-1.081l-3.437,-1.732l-0.064,-0Zm-7.763,9.889c1.039,-0.066 2.08,0.081 3.061,0.431c0.943,0.342 1.814,0.858 2.566,1.522c0.759,0.672 1.382,1.484 1.834,2.392c0.459,0.936 0.724,1.956 0.779,2.997c0.058,1.04 -0.092,2.08 -0.44,3.061c-0.677,1.911 -2.081,3.479 -3.905,4.363c-1.895,0.909 -4.074,1.031 -6.058,0.339c-4.017,-1.455 -6.135,-5.947 -4.702,-9.972c0.332,-0.931 0.836,-1.792 1.484,-2.539c0.673,-0.755 1.481,-1.377 2.384,-1.833c0.936,-0.458 1.956,-0.72 2.997,-0.77l-0,0.009Z" style="fill:#262626;fill-rule:nonzero;"/><path d="M1436.4,589.856l-0.972,0.504l-1.017,0.568l-0.055,0c-0.963,0.596 -1.971,1.229 -2.888,1.925c-0.916,0.697 -1.998,1.485 -3.006,2.301c-0.375,0.276 -0.904,0.224 -1.219,-0.119l-4.354,-4.977c-0.284,-0.361 -0.257,-0.882 0.065,-1.21c0.76,-0.715 1.567,-1.393 2.401,-2.053c0.834,-0.66 1.705,-1.265 2.585,-1.833c0.696,-0.45 1.42,-0.917 2.181,-1.311c0.761,-0.394 1.503,-0.798 2.246,-1.146c0.311,-0.128 0.614,-0.302 0.916,-0.44c-1.211,-1.985 -2.681,-3.801 -4.372,-5.398c-1.919,-1.813 -4.104,-3.322 -6.48,-4.473c-2.243,-1.076 -4.624,-1.834 -7.076,-2.255c-2.484,-0.428 -5.015,-0.524 -7.525,-0.284c-2.495,0.235 -4.944,0.818 -7.277,1.732c-2.302,0.881 -4.463,2.091 -6.416,3.593c-2.407,1.876 -4.438,4.19 -5.985,6.819c-1.623,2.782 -2.749,5.824 -3.328,8.992l-0.43,2.264c-0.079,0.35 -0.355,0.623 -0.706,0.696l-2.255,0.44c-1.091,0.193 -2.108,0.422 -3.07,0.679c-0.91,0.243 -1.806,0.534 -2.686,0.87l-0.046,0c-0.765,0.298 -1.512,0.641 -2.236,1.027c-0.697,0.372 -1.368,0.791 -2.007,1.256c-0.949,0.681 -1.808,1.478 -2.558,2.374c-1.078,1.292 -1.905,2.775 -2.438,4.372c-0.564,1.651 -0.84,3.387 -0.816,5.132c0.041,3.556 1.177,7.013 3.254,9.899l0,0.046c0.385,0.529 0.801,1.034 1.247,1.512c0.441,0.48 0.912,0.93 1.411,1.348c0.527,0.427 1.081,0.819 1.659,1.173c0.586,0.354 1.199,0.66 1.833,0.917c0.358,0.146 0.715,0.284 1.091,0.403c0.073,0.692 0.22,1.374 0.44,2.035c0.064,0.192 0.128,0.375 0.202,0.559c-0.235,0.396 -0.447,0.806 -0.633,1.228c-0.628,1.216 -1.002,2.548 -1.1,3.914l0,0.687c-1.052,-0.292 -2.084,-0.653 -3.088,-1.081c-1.041,-0.434 -2.049,-0.942 -3.016,-1.522c-0.942,-0.558 -1.837,-1.193 -2.676,-1.897c-0.757,-0.633 -1.473,-1.313 -2.145,-2.035c-0.689,-0.742 -1.331,-1.526 -1.925,-2.346c-1.543,-2.133 -2.745,-4.492 -3.565,-6.994c-0.846,-2.522 -1.297,-5.159 -1.338,-7.818c-0.028,-2.719 0.412,-5.423 1.301,-7.993c0.871,-2.491 2.184,-4.804 3.877,-6.828c0.595,-0.71 1.232,-1.383 1.907,-2.017c0.689,-0.633 1.414,-1.227 2.172,-1.778c0.922,-0.681 1.893,-1.294 2.905,-1.833c1.061,-0.57 2.157,-1.072 3.282,-1.503c0.788,-0.312 1.613,-0.596 2.465,-0.852c0.688,-0.211 1.393,-0.404 2.099,-0.578c0.924,-3.52 2.389,-6.875 4.345,-9.945c2.01,-3.141 4.546,-5.913 7.497,-8.194c2.56,-1.983 5.395,-3.586 8.414,-4.757c3.066,-1.2 6.283,-1.971 9.56,-2.291c3.253,-0.309 6.533,-0.183 9.752,0.376c3.204,0.558 6.316,1.554 9.249,2.96c3.387,1.62 6.484,3.788 9.165,6.416c2.546,2.517 4.686,5.415 6.343,8.588c0.55,-0.073 1.081,-0.128 1.613,-0.165c0.724,-0.055 1.467,-0.082 2.227,-0.073c3.24,-0 6.445,0.658 9.423,1.934l0.055,0c2.906,1.284 5.516,3.156 7.662,5.499c0.531,0.571 1.03,1.171 1.494,1.797c0.477,0.605 0.917,1.246 1.375,1.916l-0,0.055c1.493,2.364 2.609,4.946 3.309,7.653c0.765,2.919 1.138,5.928 1.109,8.946c-0.023,2.983 -0.467,5.949 -1.32,8.808c-0.77,2.603 -1.986,5.053 -3.593,7.241c-1.058,1.401 -2.266,2.683 -3.602,3.822c-1.299,1.108 -2.698,2.093 -4.18,2.942c-0.019,-0.425 -0.071,-0.848 -0.155,-1.265c-0.239,-1.193 -0.706,-2.329 -1.375,-3.345l-1.219,-1.943c-0.241,-0.367 -0.511,-0.713 -0.807,-1.036c0.805,-0.495 1.574,-1.046 2.301,-1.65c2.297,-1.917 3.941,-4.503 4.702,-7.397c0.592,-2.025 0.901,-4.122 0.916,-6.232c0.031,-2.219 -0.231,-4.431 -0.779,-6.581c-0.477,-1.927 -1.26,-3.765 -2.319,-5.445c-0.302,-0.467 -0.614,-0.916 -0.916,-1.31c-0.303,-0.395 -0.651,-0.807 -0.999,-1.174c-1.391,-1.518 -3.083,-2.729 -4.968,-3.556c-1.925,-0.82 -3.994,-1.244 -6.086,-1.246c-1.496,-0.006 -2.987,0.157 -4.446,0.485c-1.573,0.35 -3.108,0.854 -4.582,1.504l-0,-0.028Zm3.666,33.235c-0.313,-0.09 -0.651,-0.033 -0.917,0.156c-0.263,0.167 -0.446,0.436 -0.504,0.742l-0.357,1.723c-0.405,0.011 -0.809,0.045 -1.21,0.101c-0.403,0.064 -0.798,0.147 -1.192,0.247l-0.962,-1.622c-0.165,-0.261 -0.43,-0.444 -0.733,-0.504c-0.316,-0.081 -0.652,-0.017 -0.917,0.174l-2.016,1.311c-0.253,0.165 -0.429,0.427 -0.486,0.724c-0.085,0.313 -0.028,0.649 0.156,0.916l0.962,1.467c-0.526,0.585 -0.976,1.235 -1.338,1.934l-1.907,-0.385c-0.294,-0.077 -0.608,-0.023 -0.861,0.147c-0.256,0.169 -0.434,0.433 -0.495,0.733l-0.486,2.337c-0.076,0.314 -0.02,0.646 0.156,0.917c0.167,0.261 0.437,0.441 0.742,0.495l1.733,0.366c0.003,0.402 0.034,0.803 0.091,1.201c0.062,0.402 0.148,0.8 0.257,1.191l-1.604,1.055c-0.263,0.158 -0.447,0.422 -0.504,0.724c-0.08,0.314 -0.02,0.649 0.165,0.916l1.32,2.017c0.164,0.256 0.425,0.435 0.724,0.495c0.314,0.084 0.651,0.024 0.916,-0.165l1.476,-0.963c0.284,0.287 0.591,0.55 0.917,0.788c0.328,0.234 0.667,0.452 1.017,0.651l-0.394,1.833c-0.077,0.295 -0.023,0.609 0.147,0.862c0.169,0.261 0.437,0.443 0.742,0.504l2.346,0.504c0.3,0.031 0.6,-0.058 0.834,-0.247c0.258,-0.162 0.443,-0.419 0.514,-0.715l0.348,-1.751c0.405,-0.002 0.81,-0.035 1.21,-0.101c0.388,-0.038 0.774,-0.099 1.155,-0.183l1.054,1.604c0.162,0.264 0.429,0.447 0.733,0.504c0.315,0.08 0.649,0.02 0.917,-0.165l2.007,-1.32c0.256,-0.164 0.434,-0.426 0.495,-0.724c0.085,-0.313 0.028,-0.649 -0.156,-0.916l-0.917,-1.467c0.28,-0.288 0.54,-0.594 0.78,-0.916c0.236,-0.33 0.453,-0.673 0.65,-1.027l1.888,0.403c0.297,0.073 0.61,0.017 0.862,-0.156c0.264,-0.159 0.446,-0.428 0.495,-0.733l0.504,-2.346c0.068,-0.317 0.005,-0.647 -0.174,-0.917c-0.166,-0.256 -0.426,-0.437 -0.724,-0.504l-1.751,-0.357c-0.002,-0.403 -0.036,-0.804 -0.101,-1.201c-0.055,-0.402 -0.137,-0.801 -0.247,-1.192l1.604,-1.044c0.262,-0.165 0.445,-0.43 0.504,-0.734c0.08,-0.315 0.019,-0.649 -0.165,-0.916l-1.402,-1.943c-0.211,-0.325 -0.574,-0.522 -0.961,-0.522c-0.226,0 -0.446,0.067 -0.634,0.192l-1.476,0.916c-0.287,-0.278 -0.593,-0.535 -0.916,-0.77c-0.325,-0.236 -0.665,-0.451 -1.018,-0.641l0.385,-1.907c0.077,-0.295 0.024,-0.609 -0.146,-0.861c-0.168,-0.262 -0.437,-0.442 -0.743,-0.495l-2.337,-0.486l-0.055,0.046Zm-1.742,7.763c0.538,-0.029 1.077,0.045 1.586,0.22c0.484,0.18 0.932,0.447 1.32,0.788c0.382,0.346 0.693,0.764 0.916,1.228c0.24,0.484 0.377,1.011 0.404,1.549c0.031,0.536 -0.047,1.072 -0.229,1.577c-0.171,0.488 -0.432,0.938 -0.77,1.329c-0.35,0.382 -0.771,0.693 -1.238,0.917c-0.975,0.477 -2.103,0.54 -3.125,0.174c-0.987,-0.346 -1.796,-1.072 -2.246,-2.017c-0.713,-1.465 -0.474,-3.224 0.605,-4.445c0.35,-0.382 0.77,-0.693 1.238,-0.917c0.481,-0.236 1.004,-0.373 1.539,-0.403Zm-28.688,-17.983c-0.265,-0.14 -0.56,-0.214 -0.859,-0.214c-0.704,0 -1.348,0.405 -1.653,1.039l-1.319,2.539c-0.603,-0.159 -1.215,-0.275 -1.834,-0.348c-0.651,-0.074 -1.306,-0.11 -1.961,-0.11l-0.962,-2.933c-0.237,-0.766 -0.95,-1.291 -1.751,-1.291c-0.203,-0 -0.404,0.033 -0.596,0.099l-3.666,1.21c-0.465,0.15 -0.852,0.48 -1.072,0.916c-0.237,0.437 -0.277,0.954 -0.11,1.421l0.916,2.695c-1.105,0.677 -2.116,1.497 -3.006,2.438l-2.906,-1.393c-0.422,-0.238 -0.927,-0.282 -1.384,-0.119c-0.468,0.148 -0.858,0.478 -1.081,0.916l-1.733,3.428c-0.14,0.265 -0.213,0.56 -0.213,0.859c-0,0.704 0.404,1.348 1.038,1.652l2.539,1.293c-0.163,0.629 -0.28,1.269 -0.348,1.915c-0.073,0.651 -0.101,1.302 -0.11,1.953l-2.933,0.916c-0.763,0.239 -1.286,0.95 -1.286,1.75c0,0.206 0.035,0.411 0.104,0.606l1.209,3.666c0.147,0.465 0.479,0.85 0.917,1.063c0.44,0.233 0.957,0.276 1.43,0.119l2.685,-0.916c0.34,0.564 0.72,1.103 1.137,1.613c0.411,0.503 0.852,0.98 1.32,1.43l-1.412,2.75c-0.237,0.425 -0.284,0.931 -0.128,1.393c0.146,0.472 0.477,0.866 0.917,1.091l3.455,1.952c0.443,0.217 0.955,0.247 1.421,0.082c0.472,-0.146 0.865,-0.476 1.09,-0.916l1.274,-2.576c0.63,0.163 1.27,0.279 1.916,0.348c0.648,0.073 1.3,0.11 1.952,0.11l0.972,2.933c0.237,0.766 0.95,1.291 1.751,1.291c0.203,0 0.404,-0.033 0.595,-0.099l3.667,-1.21c0.465,-0.15 0.851,-0.48 1.072,-0.916c0.237,-0.44 0.277,-0.96 0.11,-1.43l-0.917,-2.695c0.564,-0.337 1.1,-0.717 1.604,-1.137c0.504,-0.41 0.984,-0.847 1.439,-1.31l2.75,1.402c0.429,0.247 0.945,0.294 1.412,0.128c0.472,-0.137 0.863,-0.471 1.072,-0.916l1.769,-3.437c0.21,-0.445 0.239,-0.955 0.082,-1.421c-0.151,-0.469 -0.48,-0.861 -0.916,-1.091l-2.576,-1.283c0.164,-0.629 0.28,-1.269 0.349,-1.915c0.07,-0.649 0.103,-1.301 0.1,-1.953l2.943,-0.916c0.762,-0.239 1.285,-0.95 1.285,-1.75c0,-0.206 -0.035,-0.411 -0.103,-0.606l-1.21,-3.666c-0.24,-0.761 -0.95,-1.283 -1.748,-1.283c-0.204,0 -0.406,0.034 -0.598,0.1l-2.686,0.917c-0.342,-0.557 -0.722,-1.089 -1.136,-1.595c-0.367,-0.563 -0.775,-1.1 -1.219,-1.604l1.393,-2.749c0.255,-0.428 0.316,-0.946 0.165,-1.421c-0.148,-0.469 -0.479,-0.859 -0.917,-1.082l-3.437,-1.732l-0.064,0Zm-7.763,9.89c1.039,-0.066 2.08,0.08 3.061,0.431c0.943,0.341 1.814,0.857 2.566,1.521c0.759,0.672 1.382,1.485 1.833,2.392c0.46,0.936 0.725,1.956 0.779,2.997c0.059,1.04 -0.091,2.081 -0.439,3.062c-0.677,1.91 -2.081,3.479 -3.905,4.363c-1.895,0.908 -4.074,1.03 -6.059,0.339c-4.016,-1.456 -6.134,-5.948 -4.702,-9.972c0.333,-0.932 0.837,-1.793 1.485,-2.539c0.672,-0.756 1.481,-1.378 2.383,-1.833c0.936,-0.459 1.956,-0.721 2.998,-0.77l-0,0.009Z" style="fill:#262626;fill-rule:nonzero;"/></g><path d="M1864.71,1093.18c-3.115,3.899 -6.758,7.325 -10.884,10.135l-3.232,13.112l-39.945,-0l-2.366,-9.669c-5.587,-2.843 -10.413,-6.869 -14.25,-11.828c-8.086,0.949 -16.199,1.46 -24.29,2.438l0.377,19.059l-36.074,-0c2.749,-4.976 6.492,-9.224 11.779,-12.323c5.458,-3.193 12.595,-5.887 20.508,-8.125c2.477,-0.699 5.031,-1.355 7.636,-1.971c-16.188,0.105 -32.787,-3.843 -35.403,-11.212c20.403,-1.655 27.906,-20.076 30.416,-42.061c3.837,-33.648 -1.483,-69.439 39.018,-85.805c32.159,-13.006 73.748,4.498 78.285,50.835c-0.189,31.482 8.663,74.743 36.841,77.031c-2.866,8.074 -22.797,11.85 -40.795,10.673c11.368,3.038 22.563,6.486 30.677,10.746c5.492,2.888 9.563,7.125 12.639,12.212l-36.58,-0l0.683,-18.482c-8.446,-1.272 -16.693,-3.004 -25.04,-4.765Zm-141.671,29.005l214.359,0c5.453,0 9.885,5.11 9.063,11.352l-11.851,89.869c-0.811,6.187 -5.103,11.346 -11.345,11.346l-186.093,-0c-6.242,-0 -10.534,-5.159 -11.345,-11.346l-11.851,-89.869c-0.822,-6.242 3.61,-11.352 9.063,-11.352Zm106.147,42.345c7.513,-0 13.605,6.092 13.605,13.611c0,7.514 -6.092,13.606 -13.605,13.606c-7.52,-0 -13.612,-6.092 -13.612,-13.606c0,-7.519 6.092,-13.611 13.612,-13.611Zm-32.082,-74.148c3.382,4.464 7.575,7.946 12.19,10.456c6.891,3.749 14.744,5.371 22.341,4.96c7.58,-0.411 14.899,-2.844 20.73,-7.203c3.46,-2.588 6.398,-5.859 8.558,-9.78c-4.548,-2.11 -7.697,-4.925 -8.508,-8.479c-7.647,5.881 -16.16,9.457 -24.762,9.457c-7.453,-0 -14.616,-2.66 -21.114,-7.164c-1.183,3.338 -4.654,5.903 -9.435,7.753Zm44.482,-105.408c-18.914,19.159 -38.873,26.661 -59.937,31.97c-0.311,2.51 -0.2,0.767 -0.2,3.382c0,28.95 21.836,63.708 46.204,63.708c24.368,0 49.019,-34.758 49.019,-63.708c0,-5.636 -0.666,-7.869 -2.049,-12.961c-18.404,-0.211 -25.567,-9.458 -33.037,-22.391Z" style="fill:#2680e3;"/><path d="M1828.68,1875.2l0,-643.951l30.754,-30.753" style="fill:none;fill-rule:nonzero;stroke:#2680e3;stroke-width:8.33px;stroke-linejoin:miter;stroke-miterlimit:10;stroke-dasharray:0,8.33,8.33,0;"/><path d="M2524.54,447.613l229.237,-0l422.864,422.863l-0,384.335l-101.499,101.498" style="fill:none;stroke:#2680e3;stroke-width:12.5px;stroke-dasharray:0,12.5,12.5,0;"/><path d="M2786.69,493.182l104.295,-0" style="fill:none;stroke:#2680e3;stroke-width:8.33px;stroke-dasharray:0,8.33,8.33,0;"/><path d="M427.97,1551.19l104.295,-0" style="fill:none;"/><path d="M383.199,1435.13l104.295,-0" style="fill:none;"/><path d="M383.199,1354.49l104.295,0" style="fill:none;"/><path d="M541.587,1666.73l104.294,0" style="fill:none;stroke:#2680e3;stroke-width:8.33px;stroke-dasharray:0,8.33,8.33,0;"/><path d="M449.821,1565.52l104.295,-0" style="fill:none;stroke:#2680e3;stroke-width:8.33px;stroke-dasharray:0,8.33,8.33,0;"/><path d="M387.192,1455.78l104.295,-0" style="fill:none;stroke:#2680e3;stroke-width:8.33px;stroke-dasharray:0,8.33,8.33,0;"/><path d="M377.202,1362.29l104.295,0" style="fill:none;stroke:#2680e3;stroke-width:8.33px;stroke-dasharray:0,8.33,8.33,0;"/><path d="M845.472,1675.11l-170.795,-0l-183.377,-183.377l0,-219.142" style="fill:none;stroke:#2680e3;stroke-width:12.5px;stroke-dasharray:0,12.5,12.5,0;"/><path d="M858.701,1151.75l41.433,-6.412l-19.731,36.994c2.22,-13.071 -8.631,-28.362 -21.702,-30.582Z" style="fill:#2680e3;"/><path d="M601.358,1186.57l240.678,0c0,0 17.754,-12.598 33.633,-23.867" style="fill:none;stroke:#2680e3;stroke-width:12.5px;stroke-dasharray:0,12.5,12.5,0;"/><path d="M3166.85,1969.42l-170.016,170.016l-1088.46,-0l-66.954,62.411l-70.794,-62.411l-1149.49,-0l-154.957,-154.956" style="fill:none;stroke:#2680e3;stroke-width:12.5px;stroke-dasharray:0,12.5,12.5,0;"/><text x="3121.48px" y="719.376px" style="font-family:'Martel-Heavy', 'Martel';font-weight:900;font-size:58.333px;fill:#999;">Privacy</text><text x="3029.63px" y="619.831px" style="font-family:'Martel-Heavy', 'Martel';font-weight:900;font-size:58.333px;fill:#999;">Security</text><path d="M3001.11,701.176l104.295,0" style="fill:none;stroke:#999;stroke-width:8.33px;stroke-dasharray:0,8.33,8.33,0;"/><path d="M2909.26,601.631l104.295,0" style="fill:none;stroke:#999;stroke-width:8.33px;stroke-dasharray:0,8.33,8.33,0;"/><g transform="matrix(4.16667,0,0,4.16667,1462,1875.2)"><text x="22.521px" y="11.144px" style="font-family:'Martel-Heavy', 'Martel';font-weight:900;font-size:14px;fill:#2680e3;">Human-centered</text><text x="12.112px" y="25.144px" style="font-family:'Martel-Heavy', 'Martel';font-weight:900;font-size:14px;fill:#2680e3;">(Human in the loop)</text></g><text x="1636.4px" y="2266.15px" style="font-family:'Martel-Heavy', 'Martel';font-weight:900;font-size:58.333px;fill:#2680e3;">Trustworthy?</text><path d="M1720.11,2304.17l210.218,-0c3.427,-0 6.223,2.796 6.223,6.228l-0,42.92l-0.359,-0.286c-3.083,-2.489 -6.26,-4.379 -9.504,-5.739l-0,-27.126c-0,-3.02 -2.463,-5.494 -5.499,-5.494l-191.919,0c-3.031,0 -5.52,2.463 -5.504,5.494l-0,101.625c-0,3.021 2.478,5.5 5.504,5.5l139.369,-0c1.146,3.332 3.021,6.613 5.442,9.175c-8.712,2.198 -18.309,3.937 -25.73,9.228l-128.241,0c-3.432,0 -6.228,-2.802 -6.228,-6.228l-0,-129.069c-0,-3.432 2.796,-6.228 6.228,-6.228Zm258.518,180.17l-127.283,0c-1.041,0 -1.88,-0.838 -1.88,-1.88c0,-0.536 0.073,-1.067 0.203,-1.588c3.015,-23.897 15.363,-24.314 28.657,-27.787c3.974,-1.042 11.212,-3.245 15.436,-6.942c2.317,-2.036 3.728,-4.531 3.166,-7.53c-3.213,-2.974 -5.682,-6.192 -6.239,-12.326l-0.385,0.005c-0.891,-0.011 -1.755,-0.214 -2.552,-0.672c-1.771,-1.005 -2.744,-2.937 -3.213,-5.14c-0.594,-2.786 -0.396,-6.093 -0.109,-8.181l0.109,-0.406c0.62,-1.724 1.385,-2.661 2.354,-3.067l0.031,-0.011c-0.448,-8.295 0.958,-21.434 -7.561,-24.012c16.815,-20.778 36.203,-32.089 50.763,-13.597c16.216,0.849 23.449,24.757 13.378,37.62l-0.422,-0c0.969,0.406 1.734,1.343 2.349,3.067l0.114,0.406c0.287,2.088 0.479,5.395 -0.114,8.181c-0.464,2.203 -1.437,4.135 -3.208,5.14c-0.802,0.458 -1.661,0.661 -2.552,0.672l-0.385,-0.005c-0.557,6.134 -3.031,9.352 -6.239,12.326c-0.562,2.999 0.849,5.494 3.166,7.53c4.224,3.697 11.462,5.9 15.436,6.942c13.289,3.473 25.642,3.89 28.657,27.787c0.13,0.521 0.203,1.052 0.203,1.588c-0,1.042 -0.844,1.88 -1.88,1.88Zm-181.655,-30.052l43.311,-0c-3.817,6.019 -8.821,21.902 -7.915,30.229l-50.477,0c8.78,-6.363 15.118,-18.872 15.081,-30.229Z" style="fill:#2680e3;"/><path d="M1783.72,2365.49l10.804,-0.145l0.805,0.21c3.79,2.186 7.183,4.914 10.121,8.156c3.876,-6.236 8.005,-11.962 12.367,-17.229c4.779,-5.772 9.85,-11.006 15.176,-15.785l1.055,-0.405l11.788,0l-2.376,2.641c-7.306,8.117 -13.933,16.507 -19.922,25.158c-5.992,8.66 -11.348,17.599 -16.11,26.8l-1.482,2.861l-1.363,-2.914c-4.972,-10.671 -11.982,-19.76 -21.743,-26.462l0.88,-2.886Zm20.63,-37.812c6.773,-0 13.418,1.508 19.523,4.438c0.393,0.189 0.562,0.666 0.373,1.061c-0.054,0.112 -0.132,0.207 -0.225,0.281l-6.612,5.411c-0.229,0.192 -0.547,0.241 -0.823,0.127c-3.92,-1.42 -8.058,-2.133 -12.227,-2.133c-9.558,0 -18.631,3.75 -25.387,10.513c-6.762,6.766 -10.515,15.822 -10.515,25.388c-0,9.56 3.75,18.626 10.513,25.386c6.767,6.763 15.822,10.516 25.389,10.516c9.55,0 18.633,-3.753 25.384,-10.515c6.766,-6.761 10.515,-15.823 10.515,-25.387c0,-2.325 -0.213,-4.613 -0.66,-6.897c-0.048,-0.249 0.026,-0.497 0.181,-0.675l5.832,-7.39c0.275,-0.342 0.778,-0.393 1.12,-0.118c0.129,0.103 0.215,0.239 0.261,0.387c1.629,4.726 2.452,9.696 2.452,14.693c-0,11.982 -4.733,23.406 -13.207,31.88c-8.472,8.47 -19.899,13.208 -31.878,13.208c-11.982,-0 -23.406,-4.737 -31.879,-13.208l-0.032,-0.036c-8.461,-8.473 -13.184,-19.869 -13.184,-31.844c0,-11.981 4.733,-23.404 13.207,-31.878l0.035,-0.032c8.474,-8.454 19.875,-13.176 31.844,-13.176Z" style="fill:#2680e3;fill-rule:nonzero;"/></g></svg>